<?xml version="1.0" encoding="UTF-8" standalone="no"?>
<!-- Created with Inkscape (http://www.inkscape.org/) -->

<svg
   xmlns:dc="http://purl.org/dc/elements/1.1/"
   xmlns:cc="http://creativecommons.org/ns#"
   xmlns:rdf="http://www.w3.org/1999/02/22-rdf-syntax-ns#"
   xmlns:svg="http://www.w3.org/2000/svg"
   xmlns="http://www.w3.org/2000/svg"
   xmlns:sodipodi="http://sodipodi.sourceforge.net/DTD/sodipodi-0.dtd"
   xmlns:inkscape="http://www.inkscape.org/namespaces/inkscape"
   version="1.1"
   id="svg6898"
   width="230.39999"
   height="230.39999"
   viewBox="0 0 230.39999 230.39999"
   sodipodi:docname="tantos_5.svg"
   inkscape:version="0.92.4 (5da689c313, 2019-01-14)">
  <metadata
     id="metadata6904">
    <rdf:RDF>
      <cc:Work
         rdf:about="">
        <dc:format>image/svg+xml</dc:format>
        <dc:type
           rdf:resource="http://purl.org/dc/dcmitype/StillImage" />
        <dc:title></dc:title>
      </cc:Work>
    </rdf:RDF>
  </metadata>
  <defs
     id="defs6902" />
  <sodipodi:namedview
     pagecolor="#ffffff"
     bordercolor="#666666"
     borderopacity="1"
     objecttolerance="10"
     gridtolerance="10"
     guidetolerance="10"
     inkscape:pageopacity="0"
     inkscape:pageshadow="2"
     inkscape:window-width="1920"
     inkscape:window-height="1000"
     id="namedview6900"
     showgrid="false"
     inkscape:zoom="3.450545"
     inkscape:cx="141.27569"
     inkscape:cy="145.73704"
     inkscape:window-x="-11"
     inkscape:window-y="-11"
     inkscape:window-maximized="1"
     inkscape:current-layer="svg6898" />
  <path
     inkscape:connector-curvature="0"
     id="path7467"
     d="M 0.28980927,115.2 V 0 H 115.48981 230.6898 V 115.2 230.39999 H 115.48981 0.28980927 Z"
     style="fill:#f9f9f9;stroke-width:0.31999999" />
  <path
     inkscape:connector-curvature="0"
     id="path7465"
     d="m 32.59486,198.25599 c -0.167779,-0.1672 -0.305052,-0.84565 -0.305052,-1.50767 0,-1.13415 -0.07416,-1.22363 -1.284202,-1.54946 -1.635661,-0.44044 -3.451099,-2.02981 -4.199004,-3.67612 -0.667675,-1.46971 -0.80838,-5.62798 -0.257553,-7.61149 0.487159,-1.75425 1.997779,-3.30335 3.920854,-4.02073 l 1.659905,-0.6192 V 117.07566 54.879998 l -0.863972,-2.780487 c -1.765257,-5.681062 -2.393473,-13.69358 -1.349309,-17.20966 0.950142,-3.199477 3.761975,-4.974237 7.81328,-4.93155 3.482861,0.0367 5.882563,1.361862 7.210054,3.981541 l 0.800727,1.580156 27.75461,0.06697 c 28.112922,0.06783 35.386422,0.04374 76.714602,-0.25407 l 23.04,-0.166032 2.12064,-0.762355 c 1.16636,-0.419296 3.24206,-0.993994 4.61267,-1.277101 1.37062,-0.283107 2.61233,-0.589091 2.75936,-0.679962 0.14703,-0.09087 0.26733,-0.593241 0.26733,-1.116378 0,-0.523137 0.19984,-1.027843 0.44409,-1.12157 0.24425,-0.09373 2.36215,-0.05321 4.70645,0.09004 4.12321,0.251952 4.26818,0.28518 4.44026,1.017744 0.13064,0.556144 0.61614,0.920769 1.82786,1.372782 2.95891,1.10377 4.58134,3.749216 4.58134,7.470067 0,1.213824 -0.72808,4.248592 -1.25591,5.234848 -0.46433,0.867622 -1.83681,1.792012 -3.38409,2.279254 -0.704,0.22169 -1.38844,0.501315 -1.52097,0.621389 -0.29448,0.266793 -0.34714,77.790736 -0.0713,104.956736 l 0.19955,19.65237 0.91589,2.74763 c 1.91933,5.7579 2.77407,14.33579 1.77196,17.78292 -0.70298,2.41818 -2.56307,4.40075 -4.66064,4.96754 -2.13723,0.5775 -5.98248,0.26969 -7.53564,-0.60323 -1.4326,-0.80517 -2.58031,-2.30342 -3.04009,-3.9686 -0.21781,-0.78884 -0.54221,-1.18272 -1.08663,-1.31936 -0.99163,-0.24888 -85.251223,-0.26923 -105.772134,-0.0255 -18.137571,0.21538 -21.861798,0.43791 -25.599999,1.52963 -1.496,0.4369 -3.296,0.91809 -4,1.06932 -1.254969,0.26958 -1.283129,0.30624 -1.44,1.87495 l -0.16,1.6 H 37.63485 c -2.604221,0 -4.87222,-0.1368 -5.04,-0.304 z m 148.20525,-16.496 c 0.14302,-0.264 0.69872,-2.1045 1.23487,-4.09001 l 0.97482,-3.61001 v -63.17873 c 0,-59.847399 -0.0295,-63.193879 -0.56,-63.466112 -0.308,-0.158061 -1.16785,-0.380167 -1.91079,-0.493565 -0.74293,-0.113402 -2.48821,-0.565495 -3.8784,-1.004656 l -2.52762,-0.798474 -64.44159,0.08078 -64.441593,0.08078 -0.397392,1.76 c -0.218566,0.968 -0.835469,3.272 -1.370896,5.12 l -0.973504,3.36 0.0909,62.230007 0.0909,62.23001 3.36,0.86056 c 1.848,0.47331 3.718771,0.99784 4.15727,1.16563 0.497139,0.19023 25.178882,0.29166 65.565125,0.26943 57.21799,-0.0315 64.79817,-0.0916 65.02791,-0.51565 z M 56.17028,173.93747 c -1.518259,-1.68104 -2.760473,-3.27921 -2.760473,-3.5515 0,-0.56003 2.181097,-2.75774 18.405762,-18.54598 20.785622,-20.22651 30.390681,-29.70098 56.551781,-55.782945 24.63984,-24.565295 25.89167,-25.868907 27.00497,-28.122072 3.34652,-6.772819 9.82684,-13.802211 13.68844,-14.84823 2.36443,-0.640473 5.11998,0.443811 7.32195,2.881127 3.48097,3.85302 3.28971,7.515596 -0.59534,11.400652 -2.2347,2.234697 -7.33218,5.846384 -10.87738,7.706883 -3.34887,1.757462 -0.68071,-0.74681 -34.05896,31.966845 -29.31592,28.73221 -40.280755,39.53207 -57.502872,56.63774 -7.26512,7.216 -13.481132,13.16363 -13.813356,13.21696 -0.419876,0.0674 -1.445696,-0.83494 -3.364522,-2.95948 z"
     style="fill:#f5ccd5;stroke-width:0.31999999" />
  <path
     inkscape:connector-curvature="0"
     id="path7463"
     d="m 38.209807,198.1809 c -0.704,-0.0613 -1.61359,-0.18627 -2.021315,-0.27765 l -0.741315,-0.16615 0.741315,-0.60101 c 0.407725,-0.33055 0.660695,-0.68202 0.562157,-0.78105 -0.09854,-0.099 -0.962538,-0.22689 -1.92,-0.28417 -0.957462,-0.0573 -2.100841,-0.33152 -2.540841,-0.60944 -0.44,-0.27792 -1.193359,-0.59651 -1.674132,-0.70799 -1.288318,-0.29874 -2.984115,-1.93285 -3.598016,-3.46714 -0.601141,-1.50239 -0.71429,-5.49907 -0.203981,-7.20502 0.430196,-1.43814 1.516992,-2.88325 2.58287,-3.43443 1.431181,-0.74009 3.622235,-1.43715 4.533259,-1.4422 0.462,-0.003 1.305046,-0.0977 1.873433,-0.21135 0.984758,-0.19695 1.024637,-0.26169 0.846662,-1.37467 -0.102723,-0.6424 -0.274294,-4.83339 -0.381267,-9.31332 -0.147981,-6.19716 -0.07176,-9.52297 0.318672,-13.90532 1.036128,-11.6298 1.258115,-17.03973 0.815853,-19.88272 -0.298912,-1.92149 -0.331821,-3.65796 -0.121594,-6.4159 C 37.641878,123.3745 37.531583,108.95208 37.096031,103.84 36.722051,99.45062 36.651654,90.557222 36.861721,74.239997 37.01799,62.101668 36.785511,59.294548 35.439126,57.062433 l -0.613786,-1.017565 0.892234,-0.13449 c 0.547273,-0.08249 0.287526,-0.153024 -0.671824,-0.182435 l -1.564058,-0.04795 0.21737,1.84 c 0.119805,1.014134 0.03227,3.491731 -0.195034,5.519999 l -0.412403,3.68 -0.209149,-2.72 c -0.11503,-1.496 -0.22344,-3.971808 -0.240908,-5.501792 -0.02458,-2.153779 -0.242301,-3.418028 -0.96435,-5.599999 -1.739234,-5.255818 -2.715714,-13.535561 -1.965261,-16.663795 0.587692,-2.449776 1.922017,-4.334746 3.666129,-5.179057 4.114214,-1.991656 9.990918,-0.517196 11.388729,2.857425 0.777773,1.877709 0.685392,1.90561 -6.624457,2.000688 l -6.65255,0.08653 -0.09514,1.129994 c -0.07316,0.868867 0.09072,1.304598 0.70914,1.885578 l 0.804282,0.755583 11.77086,-0.398771 c 21.180844,-0.717558 23.241282,-0.730076 30.01086,-0.182349 13.195855,1.067677 17.102373,1.222685 19.923884,0.790554 2.133376,-0.326739 3.801676,-0.326499 8.639996,0.0013 6.15543,0.416966 6.23157,0.41529 29.83611,-0.657261 6.17536,-0.280595 8.9383,-0.280841 11.36,-9.6e-4 4.60964,0.532653 23.07232,0.232429 25.40759,-0.413155 0.95018,-0.262675 1.87898,-0.628976 2.064,-0.814003 0.18503,-0.185104 0.59561,-0.33649 0.91241,-0.33649 0.39395,0 0.576,-0.241651 0.576,-0.76455 0,-0.420499 0.252,-1.054243 0.56,-1.408314 0.64849,-0.745491 3.74044,-1.807407 6.95749,-2.389516 2.09269,-0.378663 2.248,-0.464535 2.4,-1.327019 0.25523,-1.44826 0.95715,-1.69004 3.01929,-1.040009 1.33814,0.421812 1.81506,0.73526 1.92485,1.265079 0.1392,0.67168 0.71657,17.38095 1.03608,29.984328 0.0992,3.913296 -0.0254,8.089408 -0.36774,12.32 -1.06768,13.195855 -1.22269,17.102373 -0.79056,19.923884 0.32674,2.133376 0.3265,3.801676 -0.001,8.639995 -0.41696,6.15543 -0.41529,6.23157 0.65726,29.83611 0.2806,6.17536 0.28085,8.9383 9.6e-4,11.36 -0.53265,4.60964 -0.23242,23.07232 0.41316,25.40759 0.26267,0.95018 0.62897,1.87898 0.814,2.064 0.18511,0.18503 0.33649,0.59561 0.33649,0.91241 0,0.38606 0.24033,0.576 0.7288,0.576 1.32229,0 2.05737,0.85633 2.78146,3.24022 1.69238,5.57179 2.41568,13.80441 1.492,16.98179 -1.04688,3.60113 -3.1595,5.03935 -7.41943,5.05096 -2.13516,0.006 -2.8602,-0.13401 -4.22739,-0.81531 -1.3739,-0.68464 -1.79089,-1.10985 -2.49028,-2.53934 -1.43568,-2.93442 -1.58969,-2.8542 5.83291,-3.03832 3.54768,-0.088 6.55122,-0.26128 6.67454,-0.38508 0.38779,-0.38927 -0.15726,-2.38184 -0.81415,-2.97631 -0.59629,-0.53964 -1.24945,-0.54829 -12.55374,-0.1663 -21.04339,0.7111 -23.07276,0.72314 -29.84472,0.17713 -12.28468,-0.9905 -16.45003,-1.15173 -19.66604,-0.76123 -2.31531,0.28114 -4.41979,0.27478 -8.96,-0.0271 -6.05533,-0.40259 -7.05646,-0.38061 -29.773951,0.65359 -6.200429,0.28227 -8.928457,0.28209 -11.359999,-6.4e-4 -4.580125,-0.53278 -23.056524,-0.22885 -25.40759,0.41795 -0.950173,0.2614 -1.878973,0.62665 -2.064,0.81168 -0.185024,0.1849 -0.595609,0.33628 -0.912409,0.33628 -0.386061,0 -0.576,0.24033 -0.576,0.7288 0,1.76706 -1.878029,2.77033 -7.069235,3.7765 -1.12792,0.21862 -2.15656,0.55436 -2.285866,0.74609 -0.129305,0.19174 -0.237305,0.96061 -0.24,1.70861 l -0.0049,1.36 -1.36,-0.0538 c -0.748,-0.0296 -1.936,-0.10397 -2.64,-0.1653 z m 143.881563,-19.78091 1.20634,-4.16 0.016,-63.4339 0.0161,-63.4339 -0.88,-0.19321 c -2.39285,-0.525372 -5.82826,-1.438848 -7.08023,-1.88264 -1.24737,-0.44216 -8.41308,-0.496342 -65.64081,-0.496342 -51.014061,0 -64.304316,0.08235 -64.550111,0.4 -0.170237,0.22 -0.565908,1.624 -0.879268,3.12 -0.313363,1.496 -0.909871,3.668323 -1.325574,4.827388 l -0.755827,2.107386 0.110109,62.310808 c 0.06364,36.01488 0.230723,62.4165 0.395913,62.56125 0.157194,0.13775 1.618787,0.56892 3.247984,0.95817 1.6292,0.38924 3.4292,0.91091 4,1.15925 0.883888,0.38455 10.669529,0.44145 65.975434,0.38363 l 64.93761,-0.0679 z m -123.803903,-2.64 c -0.813788,-1.1819 -1.492544,-2.93178 -1.236508,-3.18782 0.114012,-0.11401 1.681395,-1.78738 3.483071,-3.71859 1.801677,-1.93122 5.147776,-5.47312 7.435776,-7.87091 2.288,-2.39778 5.96,-6.27632 8.16,-8.61897 3.524582,-3.75313 8.342307,-8.1606 14.559999,-13.32014 5.031417,-4.17514 9.912605,-8.73542 10.866895,-10.15245 1.05875,-1.57217 3.68428,-4.08081 7.54367,-7.20785 2.26199,-1.83275 10.86535,-10.69488 13.88308,-14.30063 3.16866,-3.78609 11.07516,-11.936071 13.13017,-13.534506 3.24176,-2.521533 6.38411,-5.471309 8.53292,-8.010006 1.12379,-1.327702 3.26726,-3.488154 4.76326,-4.801005 2.95714,-2.5951 4.70606,-4.821481 5.8894,-7.497212 0.74846,-1.692416 0.75075,-1.728691 0.15512,-2.464253 -0.86196,-1.064477 -0.77704,-1.508403 0.82689,-4.322937 1.80147,-3.161181 3.45844,-5.382659 6.59774,-8.845542 2.75316,-3.036944 5.55048,-4.792711 7.6158,-4.780144 3.30984,0.02013 7.68988,4.032726 8.2135,7.524441 0.29957,1.997693 -0.92374,4.503757 -3.32952,6.820832 -2.28103,2.196918 -7.50732,5.819427 -11.40893,7.907891 -3.29628,1.764438 -2.92587,1.408105 -63.67999,61.260331 -5.632005,5.54839 -17.018821,16.81807 -25.304036,25.04373 -8.285219,8.22566 -15.295414,14.95574 -15.578211,14.95574 -0.282797,0 -0.786841,-0.396 -1.120096,-0.88 z M 151.6498,74.151123 c 0,-0.06126 0.45067,-0.534329 1.00148,-1.051257 0.83484,-0.783492 0.94011,-0.821293 0.63266,-0.227204 -0.30868,0.596493 -1.63414,1.633453 -1.63414,1.278461 z M 32.929808,197.58111 c 0,-0.27439 0.146348,-0.40844 0.325219,-0.29789 0.17887,0.11054 0.242374,0.33504 0.141113,0.49888 -0.274313,0.44386 -0.466332,0.36109 -0.466332,-0.20099 z m 22.166088,-6.12288 c 0.311351,-0.0811 0.743351,-0.0758 0.96,0.0119 0.21665,0.0876 -0.03809,0.15404 -0.566089,0.14751 -0.528,-0.007 -0.705261,-0.0782 -0.393911,-0.15937 z M 191.7305,169.43999 c 0.004,-0.704 0.0691,-0.95432 0.14562,-0.55627 0.0765,0.39806 0.0736,0.97406 -0.006,1.28 -0.0801,0.30595 -0.14272,-0.0197 -0.13917,-0.72373 z m 0.5593,-129.130033 c 0,-8.325749 -0.0597,-8.146323 2.39716,-7.208054 2.65675,1.014624 3.99745,3.329804 4.00106,6.909186 0.002,1.726279 -0.96108,5.131543 -1.70766,6.039623 -0.53952,0.65622 -2.78951,1.614105 -3.81056,1.622259 l -0.88,0.007 z m -23.11627,-4.056282 c 0.39806,-0.07654 0.97406,-0.07364 1.28,0.0065 0.30595,0.08009 -0.0197,0.14272 -0.72373,0.139168 -0.704,-0.0036 -0.95432,-0.06909 -0.55627,-0.145625 z"
     style="fill:#f2b8c6;stroke-width:0.31999999" />
  <path
     inkscape:connector-curvature="0"
     id="path7461"
     d="m 39.729807,198.07709 c -0.523184,-0.21543 -0.72,-0.56172 -0.72,-1.26679 0,-0.69632 -0.158128,-0.98102 -0.56,-1.00824 -0.308,-0.0209 -1.568,-0.0705 -2.8,-0.11032 -3.887022,-0.12561 -7.091524,-1.59736 -8.197282,-3.76483 -1.257933,-2.46575 -1.1819,-7.29282 0.145906,-9.26315 0.877208,-1.30169 2.461802,-2.39106 4.179709,-2.87344 1.446829,-0.40626 1.770375,-0.44534 4.398851,-0.53126 l 1.807184,-0.0591 -0.02566,-8.72 c -0.01411,-4.796 0.173818,-15.704 0.41762,-24.24 0.497408,-17.41541 0.499174,-17.58889 0.362121,-35.51999 -0.07154,-9.35943 -0.218438,-13.493422 -0.528755,-14.880004 -0.679213,-3.034915 -0.920755,-8.341888 -0.517578,-11.371904 0.198186,-1.489452 0.422992,-7.844009 0.499568,-14.121237 0.07658,-6.277229 0.238,-11.939626 0.358717,-12.583107 0.160957,-0.857974 0.440611,-1.254038 1.048694,-1.485232 1.47248,-0.559837 0.127277,-0.908381 -3.526111,-0.913619 l -3.416995,-0.0049 -0.623669,-1.68 c -1.452592,-3.912909 -2.452382,-10.742899 -2.247275,-15.352086 0.11194,-2.515504 0.272051,-3.224282 1.050372,-4.649747 0.740847,-1.356838 1.232924,-1.831538 2.546444,-2.456524 2.179919,-1.037228 3.942364,-1.269861 6.173695,-0.814895 2.461523,0.501903 3.761245,1.343739 4.793146,3.104545 0.833872,1.422893 0.8392,1.466096 0.237168,1.923219 -0.512618,0.389229 -1.635149,0.434266 -6.695866,0.268634 -3.502806,-0.11464 -6.266862,-0.0752 -6.520836,0.09306 -0.349438,0.231494 -0.392563,0.871571 -0.208004,3.087187 l 0.232834,2.795136 2.448003,-0.17543 c 1.346403,-0.09649 4.536003,-0.327447 7.088003,-0.513245 6.913485,-0.503338 24.496156,-0.529549 41.279998,-0.06154 18.527471,0.516627 20.233111,0.535795 36.159991,0.406387 9.28662,-0.07545 13.50421,-0.226311 14.88,-0.532234 2.97465,-0.661443 8.62299,-0.911443 11.52,-0.509881 1.408,0.195168 7.69092,0.415446 13.96204,0.48951 6.27112,0.07406 11.93352,0.234371 12.58311,0.356234 0.86912,0.163049 1.26434,0.440579 1.49633,1.050777 0.54165,1.424647 0.90782,0.169239 0.91852,-3.149104 0.005,-1.672 0.12349,-3.219017 0.26244,-3.437817 0.35243,-0.554957 4.29079,-1.848758 7.03838,-2.312202 2.18897,-0.369216 2.30782,-0.434249 2.55594,-1.398601 0.1946,-0.756326 0.46422,-1.035634 1.06913,-1.107558 0.44489,-0.0529 0.97779,0.107334 1.18423,0.35607 0.75415,0.908697 1.32576,7.683942 1.69771,20.122857 0.28824,9.639353 0.29087,13.690841 0.0109,16.799999 -0.32155,3.571161 -0.82995,23.933356 -0.84136,33.697252 -0.0194,16.6107 0.23628,29.47366 0.62015,31.19999 0.66144,2.97465 0.91144,8.62299 0.50988,11.52 -0.19517,1.408 -0.41545,7.69092 -0.48951,13.96204 -0.0741,6.27112 -0.23437,11.93352 -0.35623,12.58311 -0.16305,0.86912 -0.44058,1.26434 -1.05078,1.49633 -1.42465,0.54165 -0.16924,0.90782 3.1491,0.91852 1.672,0.005 3.21902,0.12349 3.43782,0.26244 1.30987,0.83184 3.05801,9.5453 3.09743,15.43887 0.0235,3.51431 -0.0243,3.79721 -0.94522,5.59926 -1.23516,2.41685 -2.78904,3.36185 -5.89307,3.58394 -4.63405,0.33157 -8.01695,-1.85355 -8.01695,-5.17838 0,-0.67932 0.17202,-0.74676 2.38098,-0.93349 1.30954,-0.11069 4.15354,-0.12221 6.32,-0.0256 2.2493,0.10032 4.12441,0.0469 4.37118,-0.12445 0.33861,-0.23515 0.38167,-0.90628 0.19893,-3.1001 l -0.23324,-2.79997 -2.43892,0.1731 c -1.34141,0.0952 -4.45493,0.32707 -6.91893,0.51525 -6.5015,0.49651 -24.42707,0.53578 -40.8,0.0894 -19.33138,-0.52708 -21.89066,-0.55694 -36.79999,-0.4293 -9.153988,0.0784 -13.523854,0.2346 -14.880001,0.532 -2.965257,0.65027 -8.318217,0.88173 -11.413443,0.49351 -1.525395,-0.19132 -7.875347,-0.40663 -14.11101,-0.47847 -6.235661,-0.0718 -11.874009,-0.23125 -12.529664,-0.35424 -0.879603,-0.16502 -1.279164,-0.44386 -1.524233,-1.0637 -0.312807,-0.79117 -0.347395,-0.80281 -0.5944,-0.20005 -0.144247,0.352 -0.272387,1.96172 -0.284755,3.57714 -0.01629,2.12689 -0.151616,3.06627 -0.490557,3.40521 -0.53257,0.53257 -4.101664,1.67756 -6.251936,2.00567 -2.233952,0.34087 -2.512829,0.5848 -2.622544,2.2939 -0.08722,1.35859 -0.181504,1.5251 -0.897456,1.58487 -0.44,0.0367 -1.124,-0.0666 -1.52,-0.22969 z M 181.0258,182.33599 c 0.2112,-0.2112 0.384,-0.63483 0.384,-0.94141 0,-0.30658 0.4811,-2.18578 1.06912,-4.176 l 1.06911,-3.61859 -0.18911,-63.1683 -0.18912,-63.1683 -3.52,-0.88105 c -1.936,-0.484579 -4.096,-1.074841 -4.8,-1.311696 -1.06206,-0.357321 -12.23031,-0.403404 -65.5926,-0.270646 l -64.312596,0.16 -0.706423,3.2 c -0.388531,1.76 -1.039859,4.137693 -1.447398,5.28376 l -0.740976,2.08376 0.16,62.396232 0.16,62.39624 1.92,0.4281 c 1.056,0.23546 2.928,0.75477 4.16,1.15403 l 2.24,0.72592 64.975993,0.046 c 50.16157,0.0355 65.06355,-0.0416 65.36,-0.33803 z M 58.739403,175.7348 c -0.778441,-0.86017 -0.681632,-1.19075 0.984509,-3.36183 2.044784,-2.66448 3.241174,-4.00452 8.830928,-9.89121 2.631251,-2.77103 5.088041,-5.44781 5.459529,-5.94839 0.76712,-1.0337 6.979958,-6.89514 9.155436,-8.6376 0.792,-0.63436 3.672,-3.32032 6.4,-5.9688 2.728,-2.64849 7.630448,-7.2714 10.894335,-10.27314 7.78403,-7.15885 27.57128,-27.00723 29.16373,-29.25383 1.93822,-2.734392 5.77463,-6.793787 8.50266,-8.996846 2.80581,-2.265868 6.23518,-5.481884 12.6821,-11.893113 5.30594,-5.276569 7.03951,-6.587439 7.95527,-6.015535 0.34332,0.214409 0.70171,0.312352 0.79641,0.217651 0.24794,-0.247943 -0.54909,-1.352647 -2.59914,-3.60249 -0.98745,-1.083683 -1.79537,-2.203788 -1.79537,-2.489126 0,-2.315277 7.61922,-12.478425 10.9737,-14.637631 3.81807,-2.457607 6.06111,-2.304938 9.22921,0.628172 1.0555,0.977204 2.19764,2.322739 2.53809,2.990077 0.81211,1.591872 0.79623,3.870669 -0.039,5.596029 -1.34451,2.777388 -8.37509,8.312831 -14.382,11.32349 -2.66111,1.333754 -3.14598,1.7832 -22.39743,20.761292 -10.82259,10.66891 -22.99059,22.63673 -27.04,26.59514 -4.04941,3.95842 -17.898399,17.60242 -30.775528,30.32 -12.877126,12.71759 -23.546808,23.12288 -23.710402,23.12288 -0.163594,0 -0.53576,-0.26334 -0.827037,-0.58519 z M 192.4363,46.600577 c -0.11138,-0.593683 -0.12327,-2.573683 -0.0264,-4.4 0.0968,-1.82632 0.18144,-4.652579 0.188,-6.280579 l 0.0119,-2.959999 h 0.85189 c 1.40513,0 3.55177,1.477113 4.32173,2.973804 0.81556,1.585331 1.04857,6.289827 0.34638,6.993405 -0.22,0.220435 -0.4,0.712569 -0.4,1.093635 0,0.970243 -1.11772,2.28336 -2.5775,3.028083 -1.84598,0.941747 -2.47468,0.837962 -2.716,-0.448349 z"
     style="fill:#eca6b7;stroke-width:0.31999999" />
  <path
     inkscape:connector-curvature="0"
     id="path7459"
     d="m 185.14339,197.94116 c -2.09658,-0.56352 -3.13927,-1.4125 -3.85984,-3.14279 -1.04341,-2.50553 -1.11264,-2.47838 6.31889,-2.47838 7.55874,0 6.91273,0.37416 6.62991,-3.84 l -0.18255,-2.72 -2.56,0.008 c -1.408,0.004 -6.88,0.20379 -12.16,0.44323 -10.17418,0.46139 -24.79591,0.3288 -30.24,-0.27422 -2.68555,-0.29747 -11.42991,-0.48367 -37.59999,-0.80065 -8.50277,-0.103 -14.097864,0.13073 -22.97165,0.95959 -5.337196,0.49852 -6.618806,0.52814 -8.159999,0.18859 -1.005597,-0.22155 -4.348355,-0.43649 -7.428355,-0.47764 -3.08,-0.0411 -8.552,-0.26681 -12.16,-0.50147 -5.840863,-0.37988 -6.639769,-0.49926 -7.28767,-1.08897 -0.596492,-0.54291 -0.644569,-0.70881 -0.266697,-0.92028 0.253539,-0.14188 29.040488,-0.25891 63.971001,-0.26005 50.16446,-0.002 63.57621,-0.0855 63.82497,-0.39903 0.17322,-0.21834 0.40777,-0.91315 0.52124,-1.54405 0.27028,-1.50284 2.08418,-7.10037 2.40685,-7.4273 0.13808,-0.13991 2.1621,-0.15349 4.49783,-0.0302 l 4.24676,0.2242 0.46983,1.12446 c 1.57664,3.77344 2.91442,13.57983 2.30342,16.88498 -0.6739,3.64548 -2.26415,5.57552 -5.09395,6.1824 -2.04955,0.43955 -3.27017,0.41376 -5.22,-0.11031 z m -145.280248,-0.0745 c -0.117335,-0.11733 -0.213335,-0.61418 -0.213335,-1.1041 0,-1.24441 -0.657011,-1.48964 -3.542918,-1.32241 -2.166649,0.12556 -2.819149,0.028 -4.751397,-0.71034 -1.46131,-0.5584 -2.568737,-1.23049 -3.186077,-1.9336 -2.40271,-2.73654 -1.922957,-9.67854 0.800055,-11.57676 1.556478,-1.08502 3.030855,-1.47205 6.360337,-1.6696 l 3.2,-0.18986 0.195744,-11.52 c 0.107661,-6.336 0.349232,-12.816 0.536823,-14.4 0.321651,-2.71595 0.508038,-12.9308 0.411651,-22.56 -0.02378,-2.376 0.172579,-6.24896 0.436361,-8.60658 0.263786,-2.35762 0.428564,-4.37362 0.366176,-4.48 C 40.414182,117.68703 40.270422,113.64 40.15711,108.8 40.043798,103.96 39.880943,99.567996 39.795212,99.039996 39.39511,96.575868 38.691011,88.557635 38.690441,86.458959 c -3.2e-4,-1.287571 0.173555,-2.655571 0.386451,-3.039999 0.260551,-0.470477 0.395958,-2.63417 0.414224,-6.618963 0.03699,-8.06937 0.760086,-18.570195 1.323859,-19.225196 0.239159,-0.277859 0.434832,-0.774659 0.434832,-1.104 0,-0.473219 0.08239,-0.516416 0.392839,-0.205965 0.306908,0.306909 0.418601,13.88247 0.510633,62.063994 0.06479,33.91914 0.222023,61.78197 0.349402,61.9174 0.127382,0.13543 1.661593,0.59403 3.409363,1.01911 1.747769,0.42508 3.72758,1.00431 4.39958,1.28717 l 1.221815,0.5143 -0.223047,4.54659 c -0.122675,2.50063 -0.282243,4.65014 -0.354592,4.77671 -0.192876,0.3374 -4.816745,1.75046 -6.601846,2.01753 -1.920656,0.28734 -2.464147,0.82004 -2.464147,2.41521 0,1.16706 -0.06497,1.25714 -0.906665,1.25714 -0.498669,0 -1.002669,-0.096 -1.12,-0.21333 z m 19.180389,-22.69417 c -0.259904,-0.6773 -0.141837,-0.8539 3.006275,-4.49655 6.321507,-7.31456 19.540297,-20.55631 25.637356,-25.68189 5.135475,-4.3172 13.951248,-12.6061 15.950518,-14.99723 1.62069,-1.93835 3.59815,-3.73611 8.3816,-7.61995 3.80311,-3.08786 13.83259,-13.55296 19.6773,-20.53195 4.30018,-5.134719 7.0001,-7.764924 7.97073,-7.764924 0.22302,0 1.71458,-1.418701 3.31459,-3.152669 1.60002,-1.733964 3.7187,-3.785964 4.70819,-4.56 2.54635,-1.9919 6.48063,-5.367417 7.79971,-6.691967 2.12787,-2.136675 3.84,-3.080573 3.84,-2.116983 0,0.241111 -9.036,9.338189 -20.08,20.215728 -11.044,10.877545 -25.34307,24.972265 -31.77572,31.321615 -43.642888,43.07773 -47.239003,46.58427 -47.774254,46.58427 -0.25385,0 -0.549181,-0.22837 -0.656295,-0.5075 z M 183.89502,171.8311 c -0.0411,-0.0831 -0.14913,-28.15911 -0.24,-62.3911 l -0.16522,-62.240002 -1.92,-0.422032 c -2.53593,-0.557418 -7.29679,-1.974931 -7.60061,-2.26303 -0.13234,-0.125492 -0.1452,-2.217706 -0.0286,-4.649367 l 0.21204,-4.421199 1.13594,-0.474628 c 1.17984,-0.492966 5.07818,-1.494617 7.15863,-1.839359 0.92281,-0.152912 1.24267,-0.378676 1.39469,-0.9844 0.25166,-1.002664 1.30818,-1.042736 1.7397,-0.06598 1.04477,2.364844 1.56071,36.76748 0.65628,43.759998 -0.19789,1.529945 -0.36096,8.040246 -0.37272,14.879999 -0.0115,6.688 -0.15931,13.24 -0.32847,14.56 -0.42113,3.28624 -0.28078,20.22877 0.20015,24.15999 0.478,3.90734 1.11138,11.11689 1.11045,12.64 -6.4e-4,0.968 -0.16658,2.336 -0.36887,3.04 -0.20667,0.71921 -0.38753,3.80356 -0.41281,7.04 -0.0248,3.168 -0.23502,8.64 -0.46727,12.16 -0.36106,5.4724 -0.50968,6.49147 -1.02541,7.03111 -0.33172,0.34711 -0.63679,0.56311 -0.67792,0.48 z M 158.5002,73.664269 c -3.7042,-3.982659 -3.59834,-3.70783 -2.37284,-6.160189 1.26416,-2.529721 3.81016,-5.994998 7.00347,-9.532227 3.63114,-4.022201 6.77555,-5.335746 9.77391,-4.08295 2.68124,1.120295 5.61646,4.988067 5.62206,7.408266 0.007,2.913289 -2.34002,5.817894 -7.88388,9.757897 -2.79121,1.983708 -7.79874,4.915984 -8.91312,5.219283 -0.49628,0.135072 -1.22154,-0.451066 -3.2296,-2.61008 z M 37.109199,55.314522 C 34.281433,55.135095 32.71926,54.904369 32.54775,54.64082 32.404288,54.420366 32.004654,53.341326 31.659679,52.242945 30.011127,46.994068 29.277586,38.553413 30.198105,35.425029 c 0.67282,-2.286579 2.351607,-4.165025 4.171703,-4.667847 1.64351,-0.454038 4.76079,-0.453336 6.398943,0.0014 1.658864,0.460526 4.001056,2.754842 4.001056,3.919271 v 0.842105 h -6.88 -6.879999 V 38.73 c 0,2.528512 0.09983,3.248355 0.470222,3.390486 0.258622,0.09924 3.894622,-0.03181 8.080001,-0.291197 8.788608,-0.544697 32.184184,-0.504659 36.569775,0.06259 1.529945,0.197888 8.040246,0.36096 14.879999,0.37272 6.688,0.01149 13.240005,0.159309 14.560005,0.328467 3.28624,0.421133 20.22877,0.280775 24.15999,-0.200153 3.90734,-0.478004 11.11689,-1.11138 12.64,-1.110452 0.968,6.4e-4 2.336,0.166583 3.04,0.368877 0.71921,0.206666 3.80356,0.387523 7.04,0.412807 8.59916,0.06718 18.42582,0.780515 19.12196,1.388092 0.30908,0.269757 0.47709,0.575351 0.37335,0.679098 -0.10373,0.103744 -28.71922,0.260627 -63.58996,0.348627 l -63.401353,0.16 -0.277097,1.28 c -1.230106,5.68223 -2.540982,9.834947 -3.066298,9.713702 -0.110326,-0.02547 -2.135868,-0.169094 -4.501203,-0.319178 z m 155.692031,-7.90367 c -0.0915,-0.148028 -0.16823,-3.393987 -0.17055,-7.213238 -0.005,-7.796207 -0.0149,-7.765033 2.2129,-6.760422 1.43669,0.647856 2.71134,1.887501 3.15856,3.071821 0.62258,1.648688 0.55028,5.822656 -0.11234,6.48527 -0.264,0.264 -0.48,0.897184 -0.48,1.407078 0,1.086541 -0.9333,2.07273 -2.63409,2.783363 -1.34919,0.563732 -1.73829,0.608292 -1.97448,0.226128 z"
     style="fill:#e593a9;stroke-width:0.31999999" />
  <path
     inkscape:connector-curvature="0"
     id="path7457"
     d="m 184.50862,197.63498 c -2.04729,-0.76135 -3.41882,-2.43788 -3.41882,-4.1791 0,-0.91894 -1.08623,-0.80506 8.8,-0.92262 l 4.48,-0.0533 -4e-5,-3.84 c -3e-5,-2.112 -0.10351,-4.092 -0.22996,-4.4 -0.20817,-0.50704 -0.83607,-0.56 -6.63996,-0.56 -3.63073,0 -6.41004,-0.12608 -6.41004,-0.29079 0,-0.47541 2.20876,-7.93053 2.61148,-8.8144 0.36814,-0.80799 0.40378,-0.81481 4.25873,-0.81481 2.60989,0 4.06416,0.13146 4.42512,0.4 1.40248,1.0434 3.42115,12.61161 2.97352,17.04 -0.25988,2.5709 -1.50006,5.04932 -2.98627,5.96785 -1.47762,0.91322 -5.94985,1.17889 -7.86376,0.46714 z M 39.809807,195.17739 c -0.88,-0.11866 -2.577225,-0.14079 -3.771616,-0.0492 -2.022895,0.15515 -3.218067,-0.0431 -5.706372,-0.94675 -1.138219,-0.41334 -2.677514,-2.10568 -3.119097,-3.42922 -0.454568,-1.36246 -0.467493,-4.92281 -0.02367,-6.52099 0.485838,-1.74949 1.991046,-3.30499 3.755679,-3.88115 2.029169,-0.66254 10.369492,-0.80059 11.112506,-0.18394 0.28089,0.23311 2.050125,0.81625 3.931639,1.29585 1.881513,0.47961 3.816934,1.02729 4.300934,1.21708 l 0.88,0.34506 v 3.98709 c 0,2.1929 -0.133943,4.33938 -0.297648,4.76996 -0.234531,0.61687 -0.788762,0.93205 -2.613664,1.48634 -1.273805,0.38691 -3.103763,0.83168 -4.066566,0.98838 -0.962807,0.1567 -1.982659,0.47668 -2.266339,0.71106 -0.364986,0.30156 -0.983572,0.36308 -2.115783,0.21041 z M 154.3698,184.71193 c -0.99209,-0.38246 -3.13342,-0.52587 -9.52,-0.63757 -14.15042,-0.24751 -9.18357,-0.71437 7.6,-0.71437 8.88864,0 15.84,0.1234 15.84,0.28118 0,1.39589 -10.90143,2.23446 -13.92,1.07076 z m -34.13372,-0.67058 c -6.31287,-0.37237 -3.96179,-0.68136 5.18439,-0.68136 7.26182,0 8.99735,0.08 8.67743,0.4 -0.4577,0.45782 -8.20459,0.61506 -13.86182,0.28136 z m -38.422543,-0.26768 c 0.398051,-0.0765 0.974051,-0.0736 1.28,0.006 0.305948,0.0801 -0.01974,0.14272 -0.723732,0.13917 -0.704,-0.004 -0.95432,-0.0691 -0.556268,-0.14562 z m 13.276268,-0.32288 c 0.484,-0.0733 1.276,-0.0733 1.76,0 0.484,0.0733 0.088,0.13331 -0.88,0.13331 -0.968,0 -1.364,-0.06 -0.88,-0.13331 z m -53.765758,-5.8508 c 0,-0.616 0.06586,-0.868 0.146346,-0.56 0.08049,0.308 0.08049,0.812 0,1.12 -0.08049,0.308 -0.146346,0.056 -0.146346,-0.56 z m -0.135862,-4.32 c -0.09368,-1.056 -0.401015,-2.784 -0.682957,-3.84 -0.731098,-2.73828 -0.714218,-9.11223 0.02925,-11.04 0.49671,-1.28796 0.557485,-2.97724 0.575632,-16 0.03062,-21.98736 0.09708,-25.66411 0.459712,-25.44 0.209866,0.12971 0.30697,9.85557 0.282141,28.25889 -0.0351,26.01543 -0.205639,33.22503 -0.663763,28.06111 z m 37.51811,-17.41767 c 0.822183,-1.48765 4.013293,-5.14233 4.490058,-5.14233 0.400931,0 -0.264016,1.59139 -1.150676,2.75386 -0.418121,0.54818 -1.516819,1.62882 -2.441558,2.40142 l -1.681337,1.40472 z m 5.722096,-6.38231 c 0.176605,-0.32999 0.93767,-0.90569 1.691257,-1.27933 0.753588,-0.37363 1.730157,-0.92285 2.170157,-1.22048 0.510695,-0.34545 0.337111,-0.0469 -0.48,0.8257 -1.810489,1.93333 -4.136438,3.08488 -3.381414,1.67411 z m 99.628569,-7.08002 c 0,-0.792 0.0624,-1.116 0.13868,-0.72 0.0763,0.396 0.0763,1.044 0,1.44 -0.0763,0.396 -0.13868,0.072 -0.13868,-0.72 z m -0.0366,-13.12 c 0,-0.44 0.0726,-0.62 0.1614,-0.4 0.0888,0.22 0.0888,0.58 0,0.8 -0.0888,0.22 -0.1614,0.04 -0.1614,-0.4 z m 0.0465,-29.759994 c -0.01,-6.743194 0.0619,-8.410656 0.30762,-7.134195 0.21218,1.102413 0.21657,4.078665 0.013,8.799999 l -0.30763,7.1342 z M 41.281705,102.32 c -0.01987,-2.741268 0.08874,-4.400004 0.288102,-4.400004 0.382301,0 0.382301,6.806264 0,8.000004 -0.157264,0.49105 -0.268521,-0.89917 -0.288102,-3.6 z m 0.0643,-15.280004 0.0022,-10.079999 0.29344,5.994367 c 0.178896,3.654506 0.177964,7.589171 -0.0022,10.08 -0.260928,3.603597 -0.295549,2.896365 -0.29344,-5.994368 z M 184.03691,72.319997 c -0.036,-11.97318 0.0412,-15.686761 0.31642,-15.212281 1.22278,2.108288 1.65816,10.620652 0.67986,13.292281 -0.41229,1.125926 -0.57325,3.219747 -0.73797,9.6 -0.18513,7.170934 -0.21644,6.24005 -0.25831,-7.68 z m -25.74711,0.816928 c -1.54,-1.64705 -2.8,-3.229437 -2.8,-3.516419 0,-1.857773 4.27393,-7.966086 9.08832,-12.989052 1.31541,-1.372407 4.7392,-3.191456 6.00691,-3.191456 3.10744,0 7.93852,4.868492 7.93852,7.999999 0,1.049869 -1.3188,3.738938 -2.45347,5.002688 -2.61502,2.912496 -12.8997,9.761184 -14.57115,9.703094 -0.22502,-0.0078 -1.66913,-1.361805 -3.20913,-3.008854 z M 32.713417,54.639998 c -0.389763,-0.528938 -1.56658,-4.427546 -2.004317,-6.64 -0.612573,-3.096122 -1.131043,-9.591811 -0.853773,-10.696547 0.425023,-1.693427 0.756623,-0.717849 0.894645,2.632077 0.07831,1.900541 0.249301,3.628541 0.37999,3.84 0.172786,0.279571 2.073602,0.38447 6.966857,0.38447 h 6.729244 l -0.224394,1.36 c -0.352796,2.138214 -1.62495,6.999469 -2.177286,8.32 l -0.50192,1.2 h -4.457145 c -3.195181,0 -4.540602,-0.113255 -4.751901,-0.4 z M 192.72679,46.883291 c -0.10061,-0.262189 -0.10235,-1.738189 -0.004,-3.28 0.0985,-1.541811 0.17617,-4.495293 0.17262,-6.563293 -0.006,-3.650783 0.0138,-3.759999 0.69032,-3.759999 1.1063,0 3.15487,1.317455 3.88463,2.498236 0.71817,1.162016 1.15524,4.758413 0.76652,6.307203 -0.17898,0.713114 -0.34444,0.824483 -0.98576,0.663523 -0.76425,-0.191814 -0.76683,-0.184214 -0.30925,0.910919 0.59641,1.427408 0.36991,1.942963 -1.27783,2.908601 -1.52887,0.895978 -2.66756,1.018016 -2.9374,0.31481 z m 4.04301,-5.78433 c 0,-0.52158 -0.72488,-1.418963 -1.1462,-1.418963 -0.40692,0 -0.39244,0.125351 0.0913,0.789946 0.53605,0.736505 1.05494,1.045901 1.05494,0.629017 z m -16.48,5.295373 c -1.408,-0.32544 -3.352,-0.866934 -4.32,-1.203318 l -1.76,-0.611613 -0.0638,-4.17064 c -0.0434,-2.834528 0.0591,-4.335805 0.32,-4.686198 0.47458,-0.637434 5.00849,-2.01664 7.58915,-2.308611 l 1.91469,-0.216621 v 5.641331 5.641334 h -0.78111 c -0.42961,0 -0.884,0.166477 -1.00976,0.369952 -0.16271,0.263261 0.0526,0.313699 0.74666,0.17489 0.8321,-0.16642 0.99542,-0.08976 1.11239,0.522128 0.31979,1.672832 0.0687,1.72959 -3.74818,0.847366 z m -4,-5.914336 c 0,-0.266665 -0.28444,-0.48 -0.64,-0.48 -0.70825,0 -0.86707,0.49504 -0.24,0.748071 0.69635,0.280982 0.88,0.225033 0.88,-0.268071 z m -118.892275,3.29647 c 2.108288,-1.222774 10.620652,-1.658153 13.292281,-0.679855 1.125926,0.412291 3.219747,0.573248 9.6,0.737964 7.170934,0.185133 6.24005,0.216442 -7.68,0.258314 -11.97318,0.03601 -15.686761,-0.04123 -15.212281,-0.316423 z m 35.278085,-0.02115 c 1.102413,-0.212173 4.078665,-0.216564 8.8,-0.01299 l 7.1342,0.307625 -8.800005,0.01299 c -6.743194,0.01 -8.410656,-0.06195 -7.134195,-0.307619 z m 36.49419,0.192751 c 0.22,-0.08877 0.58,-0.08877 0.8,0 0.22,0.08877 0.04,0.161405 -0.4,0.161405 -0.44,0 -0.62,-0.07263 -0.4,-0.161405 z m 12.8,-0.01389 c 0.396,-0.07627 1.044,-0.07627 1.44,0 0.396,0.07627 0.072,0.138679 -0.72,0.138679 -0.792,0 -1.116,-0.06241 -0.72,-0.138679 z M 30.692348,34.757768 c -0.0047,-1.103952 1.276953,-2.700432 2.7341,-3.405824 1.969679,-0.953506 4.709699,-1.158313 6.915935,-0.516942 2.117027,0.615437 3.124391,1.355163 3.960992,2.908635 0.546333,1.014483 0.564678,1.200278 0.145722,1.47592 -0.2873,0.189021 -3.138083,0.280307 -7.116749,0.227888 -6.253342,-0.08239 -6.637608,-0.122298 -6.64,-0.689677 z"
     style="fill:#d66f91;stroke-width:0.31999999" />
  <path
     inkscape:connector-curvature="0"
     id="path7455"
     d="m 184.50862,197.31498 c -0.67165,-0.24978 -1.49423,-0.70124 -1.82795,-1.00326 -0.68851,-0.62309 -1.44667,-2.64254 -1.11621,-2.97317 0.12015,-0.12021 3.0865,-0.26958 6.59189,-0.33195 6.15147,-0.10944 6.37345,-0.0916 6.37345,0.51268 0,0.80968 -1.19784,2.56248 -2.31852,3.39267 -1.14396,0.84743 -5.84607,1.09346 -7.70266,0.40303 z M 34.45294,194.26327 c -0.597929,-0.71218 -1.523132,-0.89511 -1.523132,-0.30114 0,0.62818 -2.504915,0.0758 -3.66341,-0.80779 -1.587272,-1.21067 -2.212938,-3.12499 -2.033641,-6.22225 0.286761,-4.95362 2.020511,-6.51433 7.457051,-6.71278 1.759999,-0.0642 4.135999,0.0291 5.279999,0.20757 2.663469,0.41536 8.278829,1.81362 9.746989,2.42705 l 1.133011,0.47341 -0.01843,3.13632 c -0.01014,1.72498 -0.119962,3.7085 -0.244045,4.40782 -0.206918,1.16619 -0.357763,1.32124 -1.821558,1.87236 -2.320893,0.87383 -6.359677,1.62165 -9.115955,1.6879 -1.32,0.0317 -2.904,0.15604 -3.52,0.27625 -0.907024,0.17701 -1.225891,0.0924 -1.676867,-0.44472 z M 181.7298,182.14099 c 0,-0.50189 0.34927,-1.60243 0.77616,-2.44564 0.42689,-0.84321 0.96689,-2.1812 1.2,-2.97332 0.66499,-2.25962 1.39564,-2.64292 5.027,-2.63714 1.69226,0.003 3.24011,0.1107 3.43966,0.24 0.53022,0.34358 1.9537,5.09274 2.08467,6.9551 l 0.11251,1.6 -6.32,0.0868 -6.32,0.0868 z M 158.56092,72.842928 c -1.51312,-1.64839 -2.75112,-3.164496 -2.75112,-3.369126 0,-1.329498 4.09436,-7.392717 6.84924,-10.142861 0.54492,-0.54398 1.24949,-1.37198 1.5657,-1.839999 0.37159,-0.549978 0.86471,-0.850944 1.39424,-0.850944 0.58094,0 0.76795,-0.133818 0.64278,-0.459981 -0.11563,-0.301344 0.30003,-0.739248 1.20524,-1.269738 1.85023,-1.084307 3.59511,-1.337571 5.0441,-0.732144 2.59616,1.084746 5.68941,4.99088 5.6957,7.192499 0.008,2.736483 -3.1389,6.282224 -9.13142,10.289344 -3.27489,2.189875 -6.82921,4.180019 -7.46534,4.180019 -0.1639,0 -1.53601,-1.348682 -3.04912,-2.997069 z M 32.784806,54.319998 c -0.0687,-0.22 -0.416842,-1.336 -0.773643,-2.48 -0.3568,-1.144 -0.800069,-2.934448 -0.985042,-3.978771 -0.598237,-3.377552 -1.255924,-3.061229 6.3648,-3.061229 3.685613,0 6.775974,0.121123 6.867465,0.269162 0.212509,0.343843 -1.193526,6.5967 -1.821088,8.098668 -0.582524,1.394176 -1.197084,1.55217 -6.037532,1.55217 -2.51208,0 -3.525046,-0.112087 -3.61496,-0.4 z M 193.14314,46.826664 c -0.26903,-0.269021 -0.27106,-3.074685 -0.003,-4.694675 0.26188,-1.585024 1.37336,-2.215901 2.34877,-1.333168 0.35271,0.319203 0.6413,0.900464 0.6413,1.291692 0,0.391229 0.20985,1.213581 0.46634,1.82745 0.43904,1.050758 0.42498,1.153782 -0.24,1.759094 -1.28144,1.166461 -2.6916,1.671015 -3.21301,1.149607 z M 182.0498,46.496753 c -1.69719,-0.288713 -5.96206,-1.489661 -6.81684,-1.919555 -0.81716,-0.410979 -0.88824,-0.584595 -0.8,-1.954128 0.10711,-1.662435 -0.0175,-1.615773 2.7981,-1.047709 2.02465,0.40848 3.21874,1.096468 3.21874,1.854503 0,0.726851 1.58246,2.330134 2.29987,2.330134 0.31907,0 0.58013,0.216 0.58013,0.48 0,0.264 -0.108,0.46039 -0.24,0.436422 -0.132,-0.02397 -0.6,-0.104819 -1.04,-0.179667 z m -0.76517,-3.229398 c -0.58784,-1.136758 -1.82064,-1.987357 -2.88034,-1.987357 -0.47642,0 -1.05876,-0.344176 -1.47267,-0.870371 -0.41786,-0.531222 -1.01919,-0.884333 -1.54323,-0.906208 -0.75628,-0.03155 -0.87077,-0.181606 -0.96086,-1.259126 -0.1954,-2.337386 -0.0167,-2.539747 3.05516,-3.459882 1.54391,-0.462457 3.45511,-0.882134 4.24711,-0.93262 l 1.44,-0.09179 V 38.88 c 0,5.025984 -0.0129,5.121834 -0.70152,5.219837 -0.50566,0.07196 -0.83614,-0.160471 -1.18365,-0.83248 z m 16.07423,-1.043357 c -0.028,-0.2552 -0.0682,-1.112 -0.0893,-1.904 -0.0371,-1.394918 -0.0675,-1.436531 -0.96919,-1.329219 -0.51197,0.06093 -1.27318,0.240928 -1.69157,0.4 -0.41839,0.159069 -0.89533,0.289219 -1.05987,0.289219 -0.16454,0 -0.29917,-1.300518 -0.29917,-2.890041 0,-3.232656 0.23529,-3.581158 1.853,-2.744605 1.91322,0.989363 2.52574,2.127814 2.7787,5.164534 0.15668,1.880887 0.11792,2.88849 -0.12026,3.126672 -0.25525,0.255255 -0.36538,0.224445 -0.40238,-0.11256 z M 35.569807,34.960728 c -5.194758,-0.111987 -5.33179,-0.20464 -3.359999,-2.271856 1.3344,-1.398979 2.878943,-1.965304 5.359999,-1.965304 3.0988,0 5.474643,1.086989 6.435005,2.944123 0.655846,1.268269 0.253833,1.545194 -2.115005,1.456925 -0.968,-0.03607 -3.812,-0.109821 -6.32,-0.163888 z"
     style="fill:#ce276e;stroke-width:0.31999999" />
  <path
     inkscape:connector-curvature="0"
     id="path7453"
     d="m 185.94875,197.44297 c -1.22303,-0.13885 -2.36013,-0.48261 -2.87978,-0.87059 -0.84437,-0.63041 -1.92557,-2.81265 -1.5698,-3.16842 0.34007,-0.34007 6.46598,-0.51758 7.59014,-0.21995 0.71598,0.18957 1.16004,0.51982 1.23195,0.9162 0.0618,0.34088 0.40428,0.93645 0.76097,1.3235 0.3567,0.38704 0.56628,0.91808 0.46574,1.18007 -0.1818,0.47379 -2.18196,1.19081 -3.09817,1.11064 -0.264,-0.0231 -1.38947,-0.14525 -2.50105,-0.27145 z M 34.329308,191.77145 c -0.550275,-0.0694 -1.331376,-0.47832 -1.735779,-0.90879 -0.899562,-0.95754 -2.007023,-0.99957 -3.126885,-0.11869 l -0.844111,0.66398 -0.566362,-0.69943 c -0.445653,-0.55036 -0.564865,-1.28864 -0.559335,-3.46398 0.01342,-5.27907 1.525607,-6.78633 7.032972,-7.01009 1.671999,-0.0679 4.047999,0.0201 5.279999,0.19555 2.699075,0.38445 8.328214,1.76428 9.933021,2.43481 l 1.159043,0.48428 -0.203034,3.28545 c -0.275277,4.4544 -0.339405,4.70466 -1.151187,4.49238 -0.365658,-0.0956 -1.241424,0.0164 -1.946147,0.24901 -1.135597,0.37478 -1.404326,0.35663 -2.362918,-0.1596 -0.782125,-0.42121 -1.430458,-0.5267 -2.341562,-0.381 -0.937779,0.14995 -1.304957,0.0842 -1.435904,-0.25701 -0.172822,-0.45037 -2.074953,-1.13304 -3.166771,-1.13654 -0.305504,-9.6e-4 -0.93664,0.57421 -1.402525,1.27821 -0.465884,0.704 -1.007926,1.25696 -1.20454,1.22879 -0.196612,-0.0282 -0.8077,-0.10797 -1.357975,-0.17733 z M 181.86021,181.71026 c 0.12204,-0.76465 0.47168,-1.82227 0.77698,-2.35027 0.3053,-0.528 0.75562,-1.608 1.00071,-2.4 0.82497,-2.66584 1.39206,-2.94814 5.25632,-2.61659 l 2.52443,0.21659 0.0937,1.28 c 0.0516,0.704 0.18806,1.79201 0.30333,2.41779 0.15476,0.84016 0.0768,1.24802 -0.29816,1.55918 -0.60289,0.50036 -0.67839,2.14875 -0.10775,2.35256 1.17317,0.41898 -0.65807,0.7225 -4.95186,0.82074 l -4.81962,0.11027 z M 158.87152,72.9856 c -1.33194,-1.56992 -2.42172,-2.92736 -2.42172,-3.016537 0,-0.08918 0.24241,-0.208823 0.53868,-0.265879 0.29628,-0.05706 0.83628,-0.666963 1.2,-1.355347 0.68131,-1.289437 0.90952,-1.472154 2.63387,-2.108864 0.6163,-0.227568 1.16245,-0.735769 1.3956,-1.298637 0.30164,-0.728243 0.49761,-0.863443 0.92217,-0.636227 0.38916,0.208272 0.95784,0.0279 2.0444,-0.648377 0.82791,-0.5153 1.50185,-1.044647 1.49765,-1.176324 -0.004,-0.131676 -0.14024,-0.811369 -0.30232,-1.510428 -0.26681,-1.150784 -0.21311,-1.354266 0.56764,-2.151111 0.65811,-0.67168 1.17263,-0.882198 2.17272,-0.888982 1.5161,-0.01027 2.26329,-0.654489 2.42282,-2.088889 0.0974,-0.87544 0.20543,-0.955431 1.22677,-0.908109 1.88611,0.08739 5.44622,4.394608 5.43688,6.57783 -0.006,1.490093 -1.49614,3.929222 -3.59981,5.89382 -3.09288,2.888413 -11.64612,8.436458 -13.00622,8.436458 -0.16907,0 -1.39718,-1.28448 -2.72913,-2.854397 z M 35.481769,54.487722 34.033731,54.37081 33.996707,53.025402 c -0.02035,-0.739971 -0.139671,-1.80375 -0.265133,-2.363951 -0.160496,-0.716647 -0.076,-1.235709 0.285062,-1.751204 0.583792,-0.833481 0.661316,-1.955513 0.195274,-2.826323 -0.267987,-0.500736 -0.180061,-0.619993 0.56,-0.759558 1.718893,-0.324157 9.289408,-0.573821 9.442726,-0.311405 0.218406,0.373818 -0.933267,5.856112 -1.617114,7.697917 -0.461561,1.24312 -0.742896,1.563875 -1.517174,1.729753 -1.017408,0.217971 -3.249641,0.236746 -5.598579,0.04709 z M 193.31821,43.955908 c 0.0838,-2.822335 0.15005,-3.105647 0.78034,-3.338127 0.95877,-0.353636 1.67933,0.265836 2.08298,1.790787 0.6418,2.424633 0.52967,3.087081 -0.65905,3.893657 -0.59803,0.405776 -1.35924,0.737773 -1.69159,0.737773 -0.55689,0 -0.59708,-0.241795 -0.51268,-3.08409 z m -11.10841,2.528448 c -2.25446,-0.43343 -6.21805,-1.509673 -6.96,-1.889862 -0.72358,-0.370781 -0.87913,-0.662765 -0.8751,-1.642713 0.007,-1.650205 0.34424,-2.097258 1.30411,-1.727648 0.42405,0.163286 1.48536,0.466224 2.35847,0.673193 1.89798,0.449914 2.41252,0.826583 2.41252,1.766074 0,0.887264 1.2578,2.096598 2.18063,2.096598 0.38465,0 0.69937,0.135501 0.69937,0.301114 0,0.424348 -0.37572,0.566336 -1.12,0.423244 z m -0.86617,-3.524358 c -0.42918,-0.896893 -1.96711,-1.837683 -3.5125,-2.148685 -0.47697,-0.09599 -0.94886,-0.456972 -1.06156,-0.812057 -0.14322,-0.451248 -0.48431,-0.639258 -1.15973,-0.639258 -0.92425,0 -0.95348,-0.04514 -0.85844,-1.3251 0.0964,-1.298176 0.12441,-1.326989 1.3784,-1.418157 0.704,-0.05118 1.79201,-0.187376 2.41779,-0.30265 0.84016,-0.154761 1.24802,-0.07677 1.55918,0.29816 0.24958,0.300717 0.9174,0.507747 1.63785,0.507747 h 1.21645 l 0.10436,2.48 c 0.1471,3.495315 0.0243,4.24 -0.69942,4.24 -0.34053,0 -0.7839,-0.381622 -1.02238,-0.88 z m 16.12856,-2.16 c 0.007,-0.528 0.0782,-0.705261 0.15937,-0.39391 0.0811,0.31135 0.0758,0.74335 -0.0119,0.96 -0.0877,0.216649 -0.15404,-0.03809 -0.14752,-0.56609 z m -3.90239,-2.24 c 0,-0.6259 0.16331,-0.8 0.7504,-0.8 0.41273,0 1.01104,-0.288 1.3296,-0.64 0.76013,-0.839936 1.39513,-0.810688 1.73688,0.08 0.3423,0.892128 0.23969,0.99016 -1.71388,1.637469 -2.04129,0.676368 -2.103,0.668227 -2.103,-0.277469 z M 35.809807,34.659045 c -0.510019,-0.155888 -1.79527,-1.641661 -2.094387,-2.421146 -0.496896,-1.294891 4.84569,-1.831079 7.623094,-0.765061 1.37145,0.526386 3.111293,2.294274 3.111293,3.161442 0,0.257222 -7.806268,0.279597 -8.64,0.02477 z"
     style="fill:#a51d4c;stroke-width:0.31999999" />
</svg>
