<?xml version="1.0" encoding="UTF-8" standalone="no"?>
<!-- Created with Inkscape (http://www.inkscape.org/) -->

<svg
   xmlns:dc="http://purl.org/dc/elements/1.1/"
   xmlns:cc="http://creativecommons.org/ns#"
   xmlns:rdf="http://www.w3.org/1999/02/22-rdf-syntax-ns#"
   xmlns:svg="http://www.w3.org/2000/svg"
   xmlns="http://www.w3.org/2000/svg"
   xmlns:sodipodi="http://sodipodi.sourceforge.net/DTD/sodipodi-0.dtd"
   xmlns:inkscape="http://www.inkscape.org/namespaces/inkscape"
   version="1.1"
   id="svg4528"
   width="230.39999"
   height="230.39999"
   viewBox="0 0 230.39999 230.39999"
   sodipodi:docname="tantos_1.svg"
   inkscape:version="0.92.4 (5da689c313, 2019-01-14)">
  <metadata
     id="metadata4534">
    <rdf:RDF>
      <cc:Work
         rdf:about="">
        <dc:format>image/svg+xml</dc:format>
        <dc:type
           rdf:resource="http://purl.org/dc/dcmitype/StillImage" />
        <dc:title></dc:title>
      </cc:Work>
    </rdf:RDF>
  </metadata>
  <defs
     id="defs4532" />
  <sodipodi:namedview
     pagecolor="#ffffff"
     bordercolor="#666666"
     borderopacity="1"
     objecttolerance="10"
     gridtolerance="10"
     guidetolerance="10"
     inkscape:pageopacity="0"
     inkscape:pageshadow="2"
     inkscape:window-width="1920"
     inkscape:window-height="1000"
     id="namedview4530"
     showgrid="false"
     inkscape:zoom="4.8798076"
     inkscape:cx="7.2076192"
     inkscape:cy="252.1287"
     inkscape:window-x="-11"
     inkscape:window-y="-11"
     inkscape:window-maximized="1"
     inkscape:current-layer="svg4528" />
  <path
     inkscape:connector-curvature="0"
     id="path5127"
     d="M 0.4098514,114.99506 V -0.20492612 h 115.1999886 115.2 V 114.99506 v 115.2 h -115.2 H 0.4098514 Z"
     style="fill:#f9f9f9;stroke-width:0.31999999" />
  <path
     inkscape:connector-curvature="0"
     id="path5125"
     d="m 32.558912,198.11506 c -0.08297,-0.22 -0.191025,-32.584 -0.240124,-71.92 l -0.08927,-71.519989 -0.883099,-2.719999 c -1.294791,-3.988035 -1.927905,-7.980397 -1.953723,-12.32 -0.02015,-3.386595 0.06694,-4.03864 0.737562,-5.522329 0.8756,-1.937181 2.333307,-3.345971 4.092145,-3.954822 1.797719,-0.622312 5.41928,-0.554048 7.207101,0.135848 1.797181,0.693508 3.609974,2.595841 4.077267,4.278654 0.857571,3.0883 6.4e-4,11.538127 -1.754685,17.305234 l -0.804387,2.642589 0.01651,71.200044 c 0.0091,39.16003 -0.07355,71.55886 -0.183616,71.99741 l -0.200128,0.79736 h -4.93535 c -3.654496,0 -4.974502,-0.10381 -5.086205,-0.4 z"
     style="fill:#f5dae1;stroke-width:0.31999999" />
  <path
     inkscape:connector-curvature="0"
     id="path5123"
     d="m 36.32985,198.27618 c -2.565533,-0.0728 -3.597399,-0.21401 -3.590944,-0.4916 0.005,-0.21424 -0.04147,-32.42952 -0.103232,-71.58952 l -0.112288,-71.199989 -0.83973,-2.438537 c -1.306391,-3.793699 -1.944993,-7.928889 -1.970766,-12.761462 -0.02195,-4.115763 0.01969,-4.407011 0.880704,-6.160425 0.701056,-1.427661 1.239318,-2.037693 2.4,-2.72 1.362665,-0.801044 1.781958,-0.879574 4.696256,-0.879574 2.714086,0 3.406457,0.11029 4.559641,0.726321 1.601008,0.855257 2.77304,2.50853 3.307837,4.66604 0.709939,2.864073 -0.250397,11.003964 -1.893283,16.047638 l -0.833876,2.56 -0.09156,71.808888 c -0.06673,52.33651 -0.188579,71.9258 -0.449344,72.24 -0.196781,0.2371 -0.80815,0.40032 -1.358598,0.3627 -0.550452,-0.0376 -2.620819,-0.11434 -4.600819,-0.17048 z M 34.431495,151.264 c -0.06253,-6.13191 -0.14697,-12.66094 -0.187661,-14.50894 -0.04069,-1.848 0.102038,-4.512 0.317181,-5.92 0.221008,-1.4464 0.429804,-6.66639 0.48,-12 0.0806,-8.56518 0.03288,-9.60072 -0.514944,-11.17437 -0.510365,-1.46604 -0.578759,-2.35719 -0.442077,-5.76 0.08893,-2.214091 0.07264,-4.52962 -0.03622,-5.14562 -0.313629,-1.774759 -0.528912,23.75931 -0.399299,47.35999 0.09797,17.83782 0.186384,21.31243 0.507661,19.94894 0.278896,-1.18363 0.356851,-4.80741 0.275359,-12.8 z"
     style="fill:#f7d4db;stroke-width:0.31999999" />
  <path
     inkscape:connector-curvature="0"
     id="path5121"
     d="m 36.32985,198.27618 c -2.565533,-0.0728 -3.597399,-0.21401 -3.590944,-0.4916 0.005,-0.21424 -0.04147,-32.42952 -0.103232,-71.58952 l -0.112288,-71.199989 -0.83973,-2.438537 c -1.306391,-3.793699 -1.944993,-7.928889 -1.970766,-12.761462 -0.02195,-4.115763 0.01969,-4.407011 0.880704,-6.160425 0.701056,-1.427661 1.239318,-2.037693 2.4,-2.72 1.362665,-0.801044 1.781958,-0.879574 4.696256,-0.879574 2.714086,0 3.406457,0.11029 4.559641,0.726321 1.601008,0.855257 2.77304,2.50853 3.307837,4.66604 0.709939,2.864073 -0.250397,11.003964 -1.893283,16.047638 l -0.833876,2.56 -0.09156,71.808888 c -0.06673,52.33651 -0.188579,71.9258 -0.449344,72.24 -0.196781,0.2371 -0.80815,0.40032 -1.358598,0.3627 -0.550452,-0.0376 -2.620819,-0.11434 -4.600819,-0.17048 z m -1.793331,-7.27787 c 0.04893,-2.28979 0.182678,-5.74725 0.297222,-7.68325 0.114541,-1.936 0.251152,-6.328 0.303581,-9.76 0.360764,-23.61576 0.505062,-31.97298 0.649212,-37.6 0.389764,-15.21484 0.415524,-23.37971 0.08935,-28.31999 -0.191728,-2.904 -0.375558,-7.799996 -0.408509,-10.88 -0.03295,-3.08 -0.178163,-6.859786 -0.322691,-8.39952 -0.172265,-1.835274 -0.123517,-4.165328 0.141533,-6.764892 0.438681,-4.302532 0.197261,-6.359152 -0.919232,-7.830752 -0.55745,-0.734746 -0.578656,-0.553056 -0.784304,6.72 -0.274781,9.718054 -0.275005,83.755204 -3.07e-4,101.849004 0.148531,9.78326 0.3108,13.82327 0.538851,13.41576 0.179478,-0.32071 0.366358,-2.45657 0.41529,-4.74636 z"
     style="fill:#f6c9d3;stroke-width:0.31999999" />
  <path
     inkscape:connector-curvature="0"
     id="path5119"
     d="m 39.459555,198.20783 c -0.262649,-0.16611 -1.852144,-0.21324 -3.6,-0.10676 -2.563456,0.15617 -3.128067,0.10955 -3.120649,-0.25767 0.005,-0.24659 -0.04147,-32.48834 -0.103232,-71.64834 l -0.112288,-71.199989 -0.83973,-2.438537 c -1.306391,-3.793699 -1.944993,-7.928889 -1.970766,-12.761462 -0.02195,-4.115763 0.01969,-4.407011 0.880704,-6.160425 0.701056,-1.427661 1.239318,-2.037693 2.4,-2.72 1.362665,-0.801044 1.781958,-0.879574 4.696256,-0.879574 2.714086,0 3.406457,0.11029 4.559641,0.726321 1.601008,0.855257 2.77304,2.50853 3.307837,4.66604 0.709939,2.864073 -0.250397,11.003964 -1.893283,16.047638 l -0.833876,2.56 -0.09156,71.808888 c -0.06673,52.33651 -0.188579,71.9258 -0.449344,72.24 -0.408426,0.49212 -2.128384,0.56741 -2.829712,0.12387 z m -4.249705,-0.55335 c -0.308,-0.0805 -0.812,-0.0805 -1.12,0 -0.308,0.0805 -0.056,0.14634 0.56,0.14634 0.616,0 0.868,-0.0659 0.56,-0.14634 z m 0.72,-0.73167 c 0.699219,-0.44057 0.853923,-4.96747 0.514249,-15.04775 -0.416704,-12.36627 -0.385353,-25.36633 0.07485,-31.04 0.70519,-8.69393 0.782115,-11.59093 0.409123,-15.40799 -0.302698,-3.09767 -0.276016,-4.55848 0.157798,-8.64 0.560765,-5.27586 0.457501,-17.4306 -0.200534,-23.60419 -0.294384,-2.76187 -0.358915,-9.214511 -0.245095,-24.50781 0.02358,-3.167999 -0.0091,-7.415999 -0.07269,-9.439999 -0.06356,-2.024 -0.05871,-4.688 0.01078,-5.92 0.136938,-2.427827 -0.515149,-5.181852 -1.536793,-6.490502 -0.557034,-0.71352 -0.570077,-0.651888 -0.560995,2.651017 0.0073,2.667607 -0.09204,3.444285 -0.470701,3.6788 -0.423715,0.262423 -0.490243,8.0928 -0.567347,66.779054 -0.04804,36.56497 -0.01654,66.66624 0.06996,66.89169 0.18288,0.47659 1.717622,0.5386 2.417389,0.0977 z M 34.563184,55.601737 c -0.106336,-0.106333 -0.382336,-0.117699 -0.613334,-0.02525 -0.255274,0.10215 -0.17945,0.177978 0.193334,0.193331 0.337331,0.01389 0.526333,-0.06174 0.42,-0.16807 z"
     style="fill:#e7d3d7;stroke-width:0.31999999" />
  <path
     inkscape:connector-curvature="0"
     id="path5117"
     d="m 36.88985,197.83779 c -1.32,-0.1487 -2.724,-0.19841 -3.12,-0.11045 -0.672499,0.14936 -0.717223,0.0592 -0.677875,-1.36618 0.03954,-1.43235 0.05428,-1.4573 0.24,-0.4061 0.169683,0.96044 0.334643,1.13188 1.157875,1.20337 1.686976,0.14649 1.904656,-0.23766 2.08,-3.67071 0.088,-1.72296 0.03142,-6.94866 -0.125751,-11.61266 -0.416704,-12.36627 -0.385353,-25.36633 0.07485,-31.04 0.70519,-8.69393 0.782115,-11.59093 0.409123,-15.40799 -0.302698,-3.09767 -0.276016,-4.55848 0.157798,-8.64 0.560765,-5.27586 0.457501,-17.4306 -0.200534,-23.60419 -0.294384,-2.76187 -0.358915,-9.214511 -0.245095,-24.50781 0.02358,-3.167999 -0.0091,-7.415999 -0.07269,-9.439999 -0.06356,-2.024 -0.05871,-4.688 0.01078,-5.92 0.136938,-2.427827 -0.515149,-5.181852 -1.536793,-6.490502 -0.557034,-0.71352 -0.570077,-0.651888 -0.560995,2.651017 0.0066,2.387652 -0.109546,3.455165 -0.39506,3.632084 -0.279184,0.172995 -0.479225,1.779318 -0.646201,5.188978 l -0.241847,4.938423 -0.238012,-8.970186 C 32.752314,56.459174 32.63888,55.077478 32.08561,53.621388 c -1.46826,-3.86414 -2.749608,-11.99893 -2.481107,-15.751586 0.203272,-2.840992 1.440656,-5.478618 3.076867,-6.558684 3.339856,-2.204651 9.260092,-1.595076 11.323583,1.165926 1.378195,1.84406 1.630787,3.194179 1.424704,7.615145 -0.200269,4.296237 -1.04967,8.953052 -2.331148,12.780444 l -0.789354,2.357562 0.02589,54.922435 c 0.01424,30.20734 0.01888,62.37443 0.01034,71.48243 l -0.01553,16.56 -1.52,-0.0435 c -0.835999,-0.0239 -2.599999,-0.16512 -3.919999,-0.31382 z M 34.563184,55.601737 c -0.106336,-0.106333 -0.382336,-0.117699 -0.613334,-0.02525 -0.255274,0.10215 -0.17945,0.177978 0.193334,0.193331 0.337331,0.01389 0.526333,-0.06174 0.42,-0.16807 z M 33.075114,192.5684 c 0.01536,-0.37279 0.09118,-0.44861 0.193331,-0.19334 0.09244,0.231 0.08107,0.507 -0.02525,0.61334 -0.106336,0.10633 -0.181965,-0.0827 -0.16807,-0.42 z"
     style="fill:#f5c2cd;stroke-width:0.31999999" />
  <path
     inkscape:connector-curvature="0"
     id="path5115"
     d="m 38.64985,197.98658 c -0.528,-0.0699 -1.32,-0.20791 -1.76,-0.30679 l -0.8,-0.17978 0.912892,-0.47993 0.912896,-0.47993 -0.176444,-3.89254 c -1.09969,-24.26014 -1.164365,-31.87198 -0.348477,-41.01255 0.507526,-5.68591 0.596109,-9.60065 0.575651,-25.44 -0.01501,-11.62808 -0.166291,-20.23536 -0.399296,-22.71999 -0.441792,-4.710999 -0.511565,-14.554858 -0.209312,-29.5303 0.142304,-7.050608 0.101459,-11.56262 -0.11744,-12.973459 -0.372016,-2.397705 -0.03477,-4.405328 0.856096,-5.09624 0.431811,-0.334896 0.219338,-0.409299 -1.305405,-0.457142 -1.001638,-0.03142 -2.127139,-0.06743 -2.50111,-0.08 -0.65495,-0.02202 -0.678992,0.10655 -0.653987,3.497142 0.01427,1.936 -0.101626,3.808 -0.257562,4.16 -0.185577,0.418912 -0.291289,-0.700109 -0.306009,-3.239321 -0.01795,-3.095283 -0.146986,-4.16241 -0.638471,-5.28 -1.3927,-3.16688 -2.889818,-11.090636 -2.894696,-15.320678 -0.0046,-4.029776 1.48434,-7.102032 4.04956,-8.355536 1.233456,-0.602734 2.052176,-0.751514 4.101114,-0.745269 4.062787,0.01238 6.430147,1.465439 7.475807,4.588556 0.931843,2.783177 0.02685,11.474732 -1.769318,16.992249 l -0.885456,2.719999 -0.170518,71.839989 -0.170516,71.84 -1.28,0.0393 c -0.704,0.0216 -1.711999,-0.0179 -2.239999,-0.0877 z"
     style="fill:#f2b8c6;stroke-width:0.31999999" />
  <path
     inkscape:connector-curvature="0"
     id="path5113"
     d="m 39.884787,197.88508 c -0.595088,-0.24631 -0.706445,-0.61231 -0.847872,-2.78678 -0.08955,-1.37678 -0.320605,-4.80724 -0.513459,-7.62324 -0.51985,-7.59064 -0.531267,-23.9208 -0.02896,-41.44 0.499187,-17.41082 0.500934,-17.58153 0.363824,-35.51999 -0.07154,-9.35943 -0.218438,-13.493418 -0.528755,-14.88 -0.679213,-3.034915 -0.920755,-8.341888 -0.517578,-11.371904 0.198186,-1.489453 0.422992,-7.844009 0.499568,-14.121238 0.07658,-6.277228 0.238,-11.939625 0.358717,-12.583106 0.160957,-0.857975 0.440611,-1.254039 1.048694,-1.485232 1.47248,-0.559837 0.127277,-0.908381 -3.526112,-0.913619 l -3.41702,-0.0049 -0.623669,-1.679999 c -2.25275,-6.068323 -3.00194,-16.583683 -1.401275,-19.667788 1.238487,-2.386275 2.707494,-3.344275 5.775088,-3.766178 3.687871,-0.507212 6.965692,1.039514 8.278127,3.906254 0.785075,1.714826 0.809763,1.951869 0.622483,5.976679 -0.207404,4.457372 -1.042166,9.107919 -2.319823,12.923999 l -0.781098,2.332966 -0.07791,71.427026 -0.07791,71.42703 -0.8,0.0668 c -0.44,0.0367 -1.108278,-0.0608 -1.485062,-0.21677 z"
     style="fill:#eca6b7;stroke-width:0.31999999" />
  <path
     inkscape:connector-curvature="0"
     id="path5111"
     d="m 40.708313,197.96897 -0.821539,-0.12514 -0.416931,-6.14438 c -0.229312,-3.37942 -0.467734,-6.50439 -0.529827,-6.94439 -0.274109,-1.94237 -0.106336,-24.22745 0.209594,-27.84 0.503888,-5.76175 0.872204,-20.24298 0.583318,-22.93447 -0.13545,-1.26195 -0.10641,-4.28595 0.06453,-6.72 0.170941,-2.43404 0.389459,-5.64953 0.485594,-7.14553 0.246009,-3.82828 -0.415626,-21.766106 -0.979664,-26.55999 -0.561395,-4.771427 -0.639335,-10.112121 -0.151971,-10.413331 0.225347,-0.13927 0.311542,-1.969475 0.253324,-5.378883 -0.04853,-2.842281 0.08671,-7.111785 0.300551,-9.487785 0.213837,-2.376 0.448323,-5.735933 0.521078,-7.466518 0.08826,-2.099363 0.284355,-3.324058 0.589242,-3.68 0.605497,-0.706899 0.905865,-1.596163 0.60247,-1.78367 -0.134099,-0.08288 -2.139289,-0.190756 -4.455981,-0.239725 -4.176543,-0.08829 -4.214812,-0.09589 -4.525539,-0.899562 -1.554331,-4.020147 -2.744464,-11.553346 -2.522576,-15.967173 0.266733,-5.305898 2.098223,-7.576515 6.611991,-8.197317 3.687871,-0.507212 6.965692,1.039514 8.278127,3.906254 0.785075,1.714826 0.809763,1.951869 0.622483,5.976679 -0.207404,4.457372 -1.042166,9.107919 -2.319823,12.923999 l -0.781098,2.332966 -0.07791,71.400356 c -0.0516,47.28833 -0.185972,71.41934 -0.397908,71.45655 -0.176,0.0309 -0.689692,-1.2e-4 -1.141536,-0.0689 z"
     style="fill:#d6a5b2;stroke-width:0.31999999" />
  <path
     inkscape:connector-curvature="0"
     id="path5109"
     d="m 39.945693,197.47506 c -0.06824,-0.22 -0.292781,-2.92 -0.498986,-6 -0.206205,-3.08 -0.43055,-6.032 -0.498544,-6.56 -0.281072,-2.1826 -0.121933,-24.30228 0.201447,-28 0.503888,-5.76175 0.872204,-20.24298 0.583318,-22.93447 -0.13545,-1.26195 -0.10641,-4.28595 0.06453,-6.72 0.170941,-2.43404 0.389459,-5.64953 0.485594,-7.14553 0.246009,-3.82828 -0.415626,-21.766106 -0.979664,-26.55999 -0.561395,-4.771427 -0.639335,-10.112121 -0.151971,-10.413331 0.225347,-0.13927 0.311542,-1.969475 0.253324,-5.378883 -0.04853,-2.842281 0.08671,-7.111785 0.300551,-9.487785 0.213837,-2.376 0.448323,-5.735933 0.521078,-7.466518 0.09558,-2.273549 0.272554,-3.301517 0.637882,-3.705197 0.278076,-0.307273 0.509974,-0.763341 0.515328,-1.013481 0.0077,-0.360762 0.07045,-0.351021 0.303395,0.04711 0.401696,0.68656 0.743027,88.178285 0.460265,117.978075 l -0.225452,23.76 h -0.924013 c -0.508208,0 -0.979843,-0.18 -1.048083,-0.4 z M 41.3576,55.358838 c -0.08126,-0.07979 -1.937382,-0.194272 -4.12471,-0.254416 -2.694643,-0.07409 -4.110269,-0.242599 -4.390397,-0.522605 -1.075183,-1.074707 -2.604831,-8.468092 -2.895207,-13.993657 -0.233955,-4.451939 0.307156,-6.63768 2.082847,-8.413372 1.374738,-1.374737 3.073432,-1.979715 5.558763,-1.979715 3.576541,0 5.761056,1.167599 7.184422,3.839999 1.251213,2.349175 0.523498,10.928624 -1.507267,17.770025 -0.626998,2.112282 -1.576256,3.879901 -1.908451,3.553741 z"
     style="fill:#e695aa;stroke-width:0.31999999" />
  <path
     inkscape:connector-curvature="0"
     id="path5107"
     d="m 40.409849,197.5893 c 0,-0.15717 0.216,-0.36865 0.48,-0.46996 0.302384,-0.11604 0.48,-0.60606 0.48,-1.32428 0,-0.71821 -0.177616,-1.20824 -0.48,-1.32428 -0.535657,-0.20555 -0.647062,-1.86358 -0.205257,-3.05489 0.446685,-1.20446 -0.239687,-15.96109 -0.781859,-16.80957 -0.561587,-0.87886 -0.626253,-13.59774 -0.0932,-18.33126 0.188288,-1.672 0.38776,-9.664 0.44327,-17.76 0.05551,-8.096 0.25311,-15.8 0.439107,-17.12 0.584157,-4.14567 0.271155,-21.18235 -0.569277,-30.985788 -0.205382,-2.395744 -0.201839,-4.241267 0.01043,-5.44 0.176704,-0.997811 0.369495,-3.830202 0.428426,-6.294202 0.05893,-2.463999 0.262064,-5.487999 0.451408,-6.719999 0.189344,-1.232 0.361469,-4.904 0.382499,-8.16 0.02102,-3.256 0.15353,-6.28 0.294442,-6.72 0.140912,-0.44 0.282841,5.392 0.315398,12.96 0.03256,7.567999 0.125827,27.583999 0.207267,44.479989 0.08144,16.896 0.0517,42.564 -0.06609,57.04 l -0.21416,26.32 h -0.76121 c -0.418653,0 -0.761197,-0.12859 -0.761197,-0.28576 z M 35.559786,54.917247 32.789722,54.811027 32.320737,53.623049 c -1.228334,-3.111485 -2.454935,-10.321686 -2.465025,-14.489897 -0.01447,-5.97911 2.545612,-8.938079 7.733184,-8.938079 4.949686,0 7.557139,2.385631 7.869475,7.199999 0.243417,3.75208 -1.508826,13.51872 -2.982624,16.624521 -0.604605,1.274112 0.195011,1.170326 -6.915961,0.897654 z"
     style="fill:#d696a8;stroke-width:0.31999999" />
  <path
     inkscape:connector-curvature="0"
     id="path5105"
     d="m 40.809849,197.20943 c 0.714256,-0.41602 0.77432,-2.47221 0.08,-2.73865 -0.535657,-0.20555 -0.647062,-1.86358 -0.205257,-3.05489 0.446685,-1.20446 -0.239687,-15.96109 -0.781859,-16.80957 -0.561587,-0.87886 -0.626253,-13.59774 -0.0932,-18.33126 0.188288,-1.672 0.38776,-9.664 0.44327,-17.76 0.05551,-8.096 0.25311,-15.8 0.439107,-17.12 0.584157,-4.14567 0.271155,-21.18235 -0.569277,-30.985788 -0.205382,-2.395744 -0.201839,-4.241267 0.01043,-5.44 0.176704,-0.997811 0.369495,-3.830202 0.428426,-6.294202 0.05893,-2.463999 0.262064,-5.487999 0.451408,-6.719999 0.189344,-1.232 0.374182,-4.976 0.410755,-8.32 0.06518,-5.960761 0.07073,-5.904278 0.282944,2.88 0.286083,11.842115 0.362541,114.498999 0.0922,123.788279 -0.206044,7.0799 -0.226892,7.25148 -0.88,7.24198 -0.608067,-0.009 -0.617984,-0.0394 -0.108953,-0.3359 z M 32.802525,54.435071 c -1.21199,-1.488521 -2.736369,-9.637161 -2.768658,-14.799999 -0.02246,-3.590918 0.0346,-3.959379 0.879727,-5.680425 0.675642,-1.375911 1.247834,-2.042077 2.26704,-2.639371 1.709187,-1.001649 4.525769,-1.328221 7.009123,-0.812679 3.362259,0.698003 5.340092,3.583029 5.340092,7.789486 0,3.603821 -1.674502,12.452291 -2.866409,15.146793 l -0.617603,1.396195 h -4.45881 c -3.180016,0 -4.55222,-0.11472 -4.784502,-0.4 z"
     style="fill:#e38ca2;stroke-width:0.31999999" />
  <path
     inkscape:connector-curvature="0"
     id="path5103"
     d="m 41.306614,180.58082 c -0.09631,-7.52992 -0.159497,-8.29963 -0.835773,-10.18107 -0.669286,-1.86199 -0.720348,-2.44788 -0.599631,-6.88 0.07257,-2.66458 0.299177,-5.78069 0.503567,-6.92469 0.49848,-2.79009 1.040781,-52.95915 0.728125,-67.35999 -0.129888,-5.982512 0.276915,-17.095356 0.597415,-16.319999 0.37078,0.896995 0.375824,114.759699 0.0051,115.345749 -0.185444,0.29315 -0.333232,-2.55284 -0.398813,-7.68 z M 32.800067,54.435071 c -0.994955,-1.212822 -2.527248,-8.600508 -2.849877,-13.740194 -0.407232,-6.487459 1.714083,-9.877563 6.493336,-10.377093 4.475191,-0.46775 7.548704,1.201526 8.571581,4.655368 0.643785,2.173805 0.647846,3.987379 0.01859,8.300851 -0.627936,4.304416 -1.575571,8.368355 -2.370256,10.164873 l -0.617606,1.396195 h -4.45881 c -3.178707,0 -4.55302,-0.114838 -4.78696,-0.4 z"
     style="fill:#e0849c;stroke-width:0.31999999" />
  <path
     inkscape:connector-curvature="0"
     id="path5101"
     d="m 41.680035,186.91506 c -0.08249,-8.74155 -0.671338,-20.30611 -1.122515,-22.04535 -0.575782,-2.21961 -0.460938,-4.24674 0.350643,-6.18912 0.41928,-1.00348 0.48351,-6.32822 0.499133,-41.3786 0.0099,-22.124805 0.130589,-41.090919 0.268285,-42.146919 0.137692,-1.056 0.269235,23.891999 0.29231,55.439989 0.02308,31.548 -0.03004,57.36 -0.118042,57.36 -0.088,0 -0.164416,-0.468 -0.169814,-1.04 z M 32.800067,54.435071 c -0.994955,-1.212822 -2.527248,-8.600508 -2.849877,-13.740194 -0.407232,-6.487459 1.714083,-9.877563 6.493336,-10.377093 4.475191,-0.46775 7.548704,1.201526 8.571581,4.655368 0.643785,2.173805 0.647846,3.987379 0.01859,8.300851 -0.627936,4.304416 -1.575571,8.368355 -2.370256,10.164873 l -0.617606,1.396195 h -4.45881 c -3.178707,0 -4.55302,-0.114838 -4.78696,-0.4 z"
     style="fill:#d7849a;stroke-width:0.31999999" />
  <path
     inkscape:connector-curvature="0"
     id="path5099"
     d="m 41.284915,170.71506 c -0.129286,-0.594 -0.235066,-1.72521 -0.235066,-2.51381 0,-0.78859 -0.229529,-2.31859 -0.510064,-3.4 -0.555507,-2.14135 -0.434473,-4.19917 0.358618,-6.0973 0.266842,-0.63864 0.492387,-2.27853 0.519699,-3.77861 0.03075,-1.68885 0.14224,-0.67685 0.307344,2.78972 0.279395,5.86623 -0.02678,14.90104 -0.440531,13 z m 0.211194,-25.48 c 6.4e-4,-2.464 0.05073,-3.4297 0.111625,-2.146 0.0609,1.2837 0.06049,3.2997 -9.6e-4,4.48 -0.06134,1.1803 -0.111165,0.13 -0.110665,-2.334 z m -0.05887,-16.48 c -0.0093,-4.84 0.0323,-8.656 0.09238,-8.48 0.223645,0.65511 0.349709,15.08248 0.141203,16.16 -0.119197,0.616 -0.22431,-2.84 -0.233584,-7.68 z m 0.02413,-42.39999 c 0.0026,-0.88 0.06455,-1.202019 0.138103,-0.7156 0.07355,0.486419 0.07159,1.206419 -0.0044,1.6 -0.07596,0.393581 -0.136135,-0.0044 -0.133735,-0.8844 z M 32.782231,54.286879 c -1.186693,-2.241132 -2.927607,-11.216725 -2.930907,-15.110815 -0.0021,-2.530723 0.853612,-5.223225 2.136421,-6.721897 1.722722,-2.012613 4.746172,-2.697547 8.424946,-1.908591 3.138643,0.673119 5.117158,3.668255 5.117158,7.746507 0,3.582586 -1.673564,12.450173 -2.852841,15.116121 l -0.604035,1.365523 -4.493984,0.04248 c -4.014784,0.03795 -4.526269,-0.0185 -4.796758,-0.529328 z"
     style="fill:#d77594;stroke-width:0.31999999" />
  <path
     inkscape:connector-curvature="0"
     id="path5097"
     d="m 35.157904,54.543676 -2.211942,-0.188605 -0.754074,-2.239999 c -1.106129,-3.285792 -1.817316,-8.114518 -1.841102,-12.500464 -0.01995,-3.679456 0.02412,-3.948659 0.939932,-5.741452 0.782283,-1.531392 1.244876,-2.027149 2.488953,-2.667372 1.880044,-0.967505 4.015545,-1.200292 6.424092,-0.700279 3.34735,0.694907 5.326086,3.587759 5.326086,7.786578 0,3.573018 -1.673142,12.449219 -2.846764,15.102381 l -0.597956,1.351782 -2.357641,-0.007 c -1.296701,-0.0038 -3.353014,-0.09185 -4.569584,-0.195587 z"
     style="fill:#b68a99;stroke-width:0.31999999" />
  <path
     inkscape:connector-curvature="0"
     id="path5095"
     d="m 35.157904,54.557023 -2.211942,-0.201952 -0.754074,-2.239999 c -1.106129,-3.285792 -1.817316,-8.114518 -1.841102,-12.500464 -0.01995,-3.679456 0.02412,-3.948659 0.939932,-5.741452 1.313961,-2.572203 3.065961,-3.509662 6.559132,-3.509662 3.405731,0 5.220998,0.939175 6.505487,3.365777 0.920749,1.739443 0.92345,1.761536 0.742087,6.065801 -0.226282,5.370269 -1.678855,12.58799 -2.857501,14.19872 -0.503008,0.687407 -3.292304,0.909238 -7.082019,0.563231 z"
     style="fill:#b37086;stroke-width:0.31999999" />
  <path
     inkscape:connector-curvature="0"
     id="path5093"
     d="m 32.734179,53.726457 c -1.402176,-3.688 -2.345293,-9.214975 -2.377237,-13.931385 -0.02548,-3.76112 0.02641,-4.10894 0.868711,-5.824195 0.774818,-1.577824 1.132253,-1.939881 2.646514,-2.680739 1.558716,-0.76261 2.023798,-0.840733 4.240924,-0.712386 4.017453,0.232567 5.923859,1.593554 6.815577,4.865653 0.707901,2.597597 -0.252544,10.878211 -1.851929,15.966684 -0.961712,3.059702 -1.052352,3.104982 -6.215641,3.104982 -3.773053,0 -3.831322,-0.01114 -4.126919,-0.788614 z"
     style="fill:#dd3184;stroke-width:0.31999999" />
  <path
     inkscape:connector-curvature="0"
     id="path5091"
     d="m 33.11385,54.131071 c -0.2112,-0.211199 -0.384,-0.715721 -0.384,-1.121158 0,-0.40544 -0.288,-1.274505 -0.64,-1.931264 -0.354572,-0.661552 -0.64,-1.805465 -0.64,-2.564934 0,-1.302435 0.03992,-1.360819 0.8,-1.170048 1.007174,0.252784 1.007424,-0.0097 0.0012,-1.205587 -0.643935,-0.765274 -0.733238,-1.071978 -0.460507,-1.581581 0.43626,-0.815158 -0.203664,-4.08895 -0.847559,-4.336035 -0.682009,-0.261712 -0.563369,-0.571107 0.705583,-1.840057 1.001736,-1.001738 1.131176,-1.298624 0.955688,-2.192 -0.111638,-0.568333 -0.451471,-1.218387 -0.755186,-1.444567 -0.520185,-0.387379 -0.515296,-0.480172 0.08431,-1.6 0.409503,-0.764787 1.150102,-1.453608 2.076521,-1.931337 1.236774,-0.637771 1.802291,-0.725439 4.007078,-0.621192 4.093104,0.19353 6.00865,1.538257 6.911741,4.852094 0.7079,2.597597 -0.252544,10.878211 -1.85193,15.966684 -0.6292,2.001818 -0.942787,2.555303 -1.586387,2.8 -1.192349,0.453331 -7.9075,0.389984 -8.376502,-0.07902 z"
     style="fill:#ce266e;stroke-width:0.31999999" />
  <path
     inkscape:connector-curvature="0"
     id="path5089"
     d="m 35.20985,54.279859 c -1.672781,-0.131901 -1.687507,-0.145252 -1.135357,-1.029383 0.292637,-0.468585 0.296582,-0.792854 0.01648,-1.355657 -0.634131,-1.274211 -0.634675,-1.985895 -0.0022,-3.058944 0.721341,-1.22407 0.524282,-2.778586 -0.427587,-3.373037 -0.336247,-0.209945 -0.611296,-0.657395 -0.611296,-0.994336 0,-0.588476 0.02477,-0.59022 0.62808,-0.04422 0.886893,0.802627 1.464035,0.445072 1.87488,-1.161536 0.338979,-1.325594 0.312316,-1.430439 -0.595978,-2.34345 -0.853993,-0.858425 -1.020547,-0.912233 -1.635302,-0.528313 -0.619965,0.387174 -0.660138,0.371696 -0.426288,-0.164227 0.142003,-0.325428 0.320902,-1.167687 0.397555,-1.871687 0.08735,-0.802243 0.426339,-1.553571 0.908211,-2.01295 0.834458,-0.795501 1.044471,-2.418915 0.368842,-2.851149 -0.22,-0.140745 -0.567773,-0.558368 -0.772829,-0.928048 -1.238746,-2.233263 6.310611,-2.836246 9.002217,-0.719027 0.455658,0.358419 1.148448,1.250061 1.539539,1.981424 1.36224,2.547475 0.739888,11.22447 -1.261251,17.584767 -0.629702,2.001402 -0.943709,2.555354 -1.587174,2.8 -0.773827,0.294208 -3.105632,0.320112 -6.280502,0.06977 z"
     style="fill:#a1526c;stroke-width:0.31999999" />
  <path
     inkscape:connector-curvature="0"
     id="path5087"
     d="m 35.68985,54.278143 c -1.1,-0.06249 -2,-0.180694 -2,-0.262684 0,-0.08199 0.173088,-0.426231 0.384643,-0.764983 0.292637,-0.468585 0.296582,-0.792854 0.01648,-1.355657 -0.634131,-1.274211 -0.634675,-1.985895 -0.0022,-3.058944 0.721341,-1.22407 0.524282,-2.778586 -0.427587,-3.373037 -0.336247,-0.209945 -0.611296,-0.657395 -0.611296,-0.994336 0,-0.588476 0.02477,-0.59022 0.62808,-0.04422 0.886893,0.802627 1.464035,0.445072 1.87488,-1.161536 0.338979,-1.325594 0.312316,-1.430439 -0.595978,-2.34345 -0.853993,-0.858425 -1.020547,-0.912233 -1.635302,-0.528313 -0.619965,0.387174 -0.660138,0.371696 -0.426288,-0.164227 0.142003,-0.325428 0.320902,-1.167687 0.397555,-1.871687 0.08735,-0.802243 0.426339,-1.553571 0.908211,-2.01295 0.834458,-0.795501 1.044471,-2.418915 0.368842,-2.851149 -0.22,-0.140745 -0.579178,-0.576627 -0.79817,-0.96863 -0.362566,-0.648992 -0.305334,-0.760871 0.64,-1.251106 0.674554,-0.349813 1.822723,-0.542241 3.27817,-0.549406 2.971475,-0.01463 4.901955,0.835446 6.136745,2.702278 0.871305,1.317296 0.903129,1.507875 0.899753,5.388282 -0.0037,4.258335 -0.63471,8.493478 -1.871366,12.560111 -0.681977,2.242621 -0.711158,2.279686 -2.128294,2.703325 -0.790262,0.23624 -1.796838,0.403968 -2.236838,0.372729 -0.44,-0.03123 -1.7,-0.107926 -2.8,-0.170413 z"
     style="fill:#ae1a4e;stroke-width:0.31999999" />
  <path
     inkscape:connector-curvature="0"
     id="path5085"
     d="m 37.423184,53.981737 c -0.423354,-0.423353 -0.200422,-1.371059 0.397834,-1.691235 0.368752,-0.19735 0.696918,-0.834637 0.827356,-1.606704 0.227085,-1.344096 1.671203,-3.208726 2.485095,-3.208726 0.332147,0 0.520803,-0.522835 0.653865,-1.812087 0.154327,-1.49526 0.07823,-1.950396 -0.435229,-2.603155 -0.452668,-0.575472 -0.622256,-1.293123 -0.622256,-2.633222 0,-1.67807 -0.06847,-1.859337 -0.768675,-2.035078 -0.960892,-0.241171 -2.676105,-2.775133 -2.925827,-4.322458 -0.102432,-0.6347 -0.322905,-1.48879 -0.489936,-1.89798 -0.42271,-1.035542 -0.126937,-1.342998 1.243325,-1.292441 0.744208,0.02746 0.914781,0.09488 0.461114,0.182256 -0.396,0.07627 -0.72,0.272663 -0.72,0.436422 0,0.407222 2.159504,0.379231 2.295833,-0.02976 0.207885,-0.623655 2.251853,0.09652 3.327885,1.172553 0.591875,0.591872 1.236902,1.679385 1.44287,2.432665 0.756198,2.765619 -0.199142,11.378666 -1.853446,16.710076 -0.46753,1.506733 -0.758176,1.954112 -1.38256,2.128103 -1.049856,0.292557 -3.668394,0.339622 -3.937248,0.07077 z"
     style="fill:#941743;stroke-width:0.31999999" />
  <path
     inkscape:connector-curvature="0"
     id="path5083"
     d="m 39.12711,53.873379 c -0.27854,-0.172147 -0.286422,-0.275255 -0.02765,-0.361514 0.199124,-0.06637 0.451277,-0.911808 0.560343,-1.878739 0.245635,-2.177693 0.589257,-2.878054 1.41208,-2.878054 0.351737,0 1.066672,-0.436967 1.588739,-0.971034 0.52207,-0.534067 0.949216,-0.803891 0.949216,-0.599609 0,1.065334 -1.395795,6.107811 -1.711891,6.184409 -0.202461,0.04906 -0.821047,0.236842 -1.37464,0.417286 -0.553591,0.180448 -1.181885,0.219712 -1.396208,0.08725 z m 3.993027,-8.718307 c -0.124281,-0.748 -0.437334,-1.772819 -0.695673,-2.277379 -0.258339,-0.50456 -0.395533,-1.201034 -0.304871,-1.547719 0.09066,-0.346688 -0.0032,-1.430777 -0.208259,-2.409087 -0.275478,-1.313354 -0.602691,-1.948493 -1.250621,-2.427527 -0.710223,-0.525094 -0.804515,-0.736755 -0.494572,-1.110214 0.307257,-0.370224 0.242691,-0.575005 -0.326669,-1.036045 -0.907363,-0.734736 -0.895085,-0.952029 0.0538,-0.952029 0.419882,0 1.157799,-0.204604 1.639818,-0.454678 1.159363,-0.601485 1.652771,-0.363664 2.437728,1.174979 0.928281,1.819581 1.054873,4.024358 0.469142,8.170701 -0.28056,1.986051 -0.510109,3.750051 -0.510109,3.919999 0,0.169949 -0.131344,0.308999 -0.291872,0.308999 -0.160531,0 -0.393558,-0.612 -0.51784,-1.36 z"
     style="fill:#86153c;stroke-width:0.31999999" />
</svg>
