<?xml version="1.0" encoding="UTF-8" standalone="no"?>
<!-- Created with Inkscape (http://www.inkscape.org/) -->

<svg
   xmlns:dc="http://purl.org/dc/elements/1.1/"
   xmlns:cc="http://creativecommons.org/ns#"
   xmlns:rdf="http://www.w3.org/1999/02/22-rdf-syntax-ns#"
   xmlns:svg="http://www.w3.org/2000/svg"
   xmlns="http://www.w3.org/2000/svg"
   xmlns:sodipodi="http://sodipodi.sourceforge.net/DTD/sodipodi-0.dtd"
   xmlns:inkscape="http://www.inkscape.org/namespaces/inkscape"
   version="1.1"
   id="svg5161"
   width="230.39999"
   height="230.39999"
   viewBox="0 0 230.39999 230.39999"
   sodipodi:docname="tantos_2.svg"
   inkscape:version="0.92.4 (5da689c313, 2019-01-14)">
  <metadata
     id="metadata5167">
    <rdf:RDF>
      <cc:Work
         rdf:about="">
        <dc:format>image/svg+xml</dc:format>
        <dc:type
           rdf:resource="http://purl.org/dc/dcmitype/StillImage" />
        <dc:title></dc:title>
      </cc:Work>
    </rdf:RDF>
  </metadata>
  <defs
     id="defs5165" />
  <sodipodi:namedview
     pagecolor="#ffffff"
     bordercolor="#666666"
     borderopacity="1"
     objecttolerance="10"
     gridtolerance="10"
     guidetolerance="10"
     inkscape:pageopacity="0"
     inkscape:pageshadow="2"
     inkscape:window-width="1920"
     inkscape:window-height="1000"
     id="namedview5163"
     showgrid="false"
     inkscape:zoom="3.450545"
     inkscape:cx="153.8243"
     inkscape:cy="138.64065"
     inkscape:window-x="-11"
     inkscape:window-y="-11"
     inkscape:window-maximized="1"
     inkscape:current-layer="svg5161" />
  <path
     inkscape:connector-curvature="0"
     id="path5730"
     d="M 0.57961854,115.77962 V 0.57961812 H 115.77962 230.97961 V 115.77962 230.97961 H 115.77962 0.57961854 Z"
     style="fill:#f9f9f9;stroke-width:0.31999999" />
  <path
     inkscape:connector-curvature="0"
     id="path5728"
     d="m 32.874302,198.78852 c -0.173376,-0.20856 -0.324926,-29.37517 -0.37328,-71.84 l -0.0814,-71.488904 -0.863971,-2.780487 c -1.765258,-5.681062 -2.393474,-13.69358 -1.34931,-17.20966 0.950143,-3.199477 3.761975,-4.974237 7.813281,-4.93155 3.48286,0.0367 5.882562,1.361862 7.210054,3.981541 l 0.800726,1.580156 27.75461,0.06697 c 28.191873,0.06803 35.768393,0.04273 76.671573,-0.25599 l 22.99697,-0.167949 2.76303,-0.921053 c 5.7729,-1.924384 14.34689,-2.780474 17.79832,-1.777113 3.45508,1.004419 5.28471,3.668611 5.28471,7.695273 0,1.213824 -0.72808,4.248592 -1.25591,5.234848 -1.02615,1.917392 -4.83249,3.116451 -8.81053,2.775465 -3.83461,-0.328691 -9.45955,-1.361693 -12.29897,-2.258665 l -2.5114,-0.793351 -64.44159,0.08078 -64.441594,0.08078 -0.430707,1.92 c -0.23689,1.056 -0.81289,3.144 -1.28,4.64 l -0.849293,2.72 -0.16,71.999989 -0.16,72 h -4.746719 c -3.054068,0 -4.850803,-0.1252 -5.038595,-0.35109 z"
     style="fill:#f3ccd5;stroke-width:0.31999999" />
  <path
     inkscape:connector-curvature="0"
     id="path5726"
     d="m 38.339617,198.75345 c -2.274471,-0.18062 -2.447664,-0.31154 -1.602359,-1.21133 l 0.733514,-0.78079 -0.394739,-11.77086 c -0.719492,-21.45489 -0.735223,-23.88451 -0.194311,-30.01086 1.035447,-11.72738 1.252471,-17.04641 0.811248,-19.88272 -0.298912,-1.92149 -0.331821,-3.65796 -0.121593,-6.4159 0.36031,-4.72687 0.250016,-19.14929 -0.185536,-24.26137 C 37.01186,100.03024 36.941463,91.13684 37.15153,74.819615 37.307799,62.681286 37.075322,59.874166 35.728935,57.642051 l -0.613786,-1.017565 0.892234,-0.13449 c 0.596957,-0.08998 0.412243,-0.150355 -0.558147,-0.182435 l -1.450381,-0.04795 -0.05266,3.919999 c -0.02896,2.156 -0.179584,4.424 -0.334714,5.04 -0.233974,0.929085 -0.32256,0.492707 -0.519683,-2.56 -0.130697,-2.024 -0.210352,-4.328 -0.177008,-5.119999 0.03334,-0.792 -0.161513,-1.949242 -0.433011,-2.571648 -1.286219,-2.94864 -2.768169,-10.980585 -2.772837,-15.028352 -0.0046,-4.031164 1.484915,-7.103791 4.04956,-8.35331 2.12568,-1.035652 5.991341,-1.06967 8.158979,-0.0718 1.672109,0.769754 3.547667,3.029815 3.395654,4.091786 -0.08992,0.62815 -0.352467,0.659491 -6.81352,0.813324 l -6.719999,0.16 -0.09514,1.129994 c -0.07316,0.868867 0.09072,1.304598 0.70914,1.885578 l 0.804282,0.755583 11.77086,-0.398771 c 21.180844,-0.717558 23.241283,-0.730076 30.01086,-0.182349 13.195855,1.067677 17.102374,1.222685 19.923884,0.790554 2.133376,-0.326739 3.801676,-0.326499 8.639998,0.0013 6.15543,0.416966 6.23158,0.41529 29.83612,-0.657261 6.17536,-0.280595 8.93829,-0.280841 11.36,-9.6e-4 4.60963,0.532653 23.07231,0.232429 25.40759,-0.413155 0.95017,-0.262675 1.87897,-0.628976 2.064,-0.814003 0.18502,-0.185104 0.5956,-0.33649 0.9124,-0.33649 0.39395,0 0.576,-0.241651 0.576,-0.76455 0,-0.420499 0.252,-1.054243 0.56,-1.408314 1.88062,-2.161926 15.36968,-4.077205 19.74897,-2.804111 2.28357,0.663852 4.09209,2.303859 4.61411,4.184191 0.50387,1.814932 0.43889,4.948071 -0.12505,6.029363 -0.26291,0.504119 -0.47803,1.202343 -0.47803,1.551613 0,0.939757 -1.7137,2.371853 -3.58006,2.99176 -3.06975,1.019606 -11.35755,0.111654 -17.8189,-1.952112 l -2.44104,-0.77967 -64.38766,-0.0041 -64.387662,-0.0041 -0.307875,1.2 c -0.169328,0.66 -0.479795,2.064 -0.68992,3.12 -0.210128,1.056 -0.736739,2.905597 -1.170253,4.110214 l -0.788201,2.190214 0.06341,57.489791 c 0.03488,31.61937 0.04649,63.78977 0.02579,71.48977 l -0.03762,14 -1.36,-0.0559 c -0.748,-0.0307 -2.008,-0.10736 -2.799999,-0.17025 z m -5.12,-0.59272 c 0,-0.27439 0.146349,-0.40844 0.325219,-0.29789 0.17887,0.11054 0.242374,0.33504 0.141114,0.49888 -0.274314,0.44386 -0.466333,0.36109 -0.466333,-0.20099 z M 169.46335,36.833293 c 0.39805,-0.07654 0.97405,-0.07364 1.28,0.0065 0.30594,0.08009 -0.0197,0.14272 -0.72374,0.139168 -0.704,-0.0036 -0.95432,-0.06909 -0.55626,-0.145625 z"
     style="fill:#f2b8c6;stroke-width:0.31999999" />
  <path
     inkscape:connector-curvature="0"
     id="path5724"
     d="m 40.054554,198.66963 c -0.595088,-0.24631 -0.706445,-0.61231 -0.847872,-2.78678 -0.08955,-1.37678 -0.320605,-4.80724 -0.513459,-7.62324 -0.51985,-7.59064 -0.531267,-23.9208 -0.02896,-41.44 0.499187,-17.41082 0.500934,-17.58153 0.363824,-35.51999 -0.07154,-9.35943 -0.218439,-13.493424 -0.528755,-14.880006 -0.679213,-3.034915 -0.920755,-8.341888 -0.517578,-11.371904 0.198186,-1.489452 0.422992,-7.844009 0.499568,-14.121237 0.07658,-6.277229 0.238,-11.939626 0.358717,-12.583107 0.160957,-0.857974 0.440611,-1.254038 1.048694,-1.485232 1.47248,-0.559837 0.127277,-0.908381 -3.526112,-0.913619 l -3.41702,-0.0049 -0.623669,-1.68 C 30.86934,50.346706 29.86955,43.516716 30.074657,38.907529 c 0.11194,-2.515504 0.272051,-3.224282 1.050372,-4.649747 0.740847,-1.356838 1.232924,-1.831538 2.546444,-2.456524 2.17992,-1.037228 3.942364,-1.269861 6.173695,-0.814895 2.461524,0.501903 3.761245,1.343739 4.793146,3.104545 0.833872,1.422893 0.8392,1.466096 0.237168,1.923219 -0.512618,0.389229 -1.635149,0.434266 -6.695865,0.268634 -3.502807,-0.11464 -6.266863,-0.0752 -6.520837,0.09306 -0.349437,0.231494 -0.392563,0.871571 -0.208004,3.087187 l 0.232834,2.795136 2.448003,-0.17543 c 1.346404,-0.09649 4.536003,-0.327447 7.088003,-0.513245 6.913485,-0.503338 24.496156,-0.529549 41.279999,-0.06154 18.527475,0.516627 20.233115,0.535795 36.160005,0.406387 9.28661,-0.07545 13.5042,-0.226311 14.88,-0.532234 2.97464,-0.661443 8.62298,-0.911443 11.52,-0.509881 1.408,0.195168 7.69091,0.415446 13.96203,0.48951 6.27112,0.07406 11.93352,0.234371 12.58311,0.356234 0.86913,0.163049 1.26434,0.440579 1.49634,1.050777 0.54164,1.424647 0.90782,0.169239 0.91851,-3.149104 0.005,-1.672 0.12349,-3.219017 0.26244,-3.437817 0.83184,-1.309869 9.5453,-3.058006 15.43888,-3.097427 3.5143,-0.02349 3.7972,0.02426 5.59926,0.945219 2.65286,1.355789 3.44575,2.823011 3.47674,6.433676 0.0147,1.714784 -0.11777,2.783504 -0.37732,3.043559 -0.22,0.220435 -0.4,0.712569 -0.4,1.093635 0,0.979065 -1.11427,2.276038 -2.67025,3.108083 -2.72812,1.458838 -11.98796,0.613379 -19.24975,-1.757574 l -2.24,-0.731354 -64.3138,0.16 -64.313813,0.16 -0.660531,3.05752 c -0.363293,1.681635 -0.979015,3.930985 -1.368269,4.998556 l -0.707737,1.941037 -0.07792,71.641439 -0.07792,71.64144 -0.8,0.0668 c -0.44,0.0367 -1.108278,-0.0608 -1.485062,-0.21677 z"
     style="fill:#eca6b7;stroke-width:0.31999999" />
  <path
     inkscape:connector-curvature="0"
     id="path5722"
     d="m 40.11248,198.25961 c -0.06988,-0.22 -0.354467,-4 -0.632422,-8.4 -0.564163,-8.93067 -0.502339,-31.61981 0.09837,-36.10374 0.184487,-1.37706 0.338298,-6.63306 0.341799,-11.68 0.0098,-14.14148 0.03184,-14.97656 0.510905,-19.38284 0.246765,-2.26962 0.397623,-4.21362 0.335236,-4.32 -0.06238,-0.10638 -0.206141,-4.15341 -0.319453,-8.99341 -0.113312,-4.84 -0.276167,-9.23201 -0.361898,-9.760006 -0.400102,-2.464128 -1.104201,-10.482361 -1.104771,-12.581037 -3.2e-4,-1.287571 0.173555,-2.655571 0.386451,-3.039999 0.260551,-0.470477 0.395959,-2.63417 0.414224,-6.618963 0.03699,-8.06937 0.760087,-18.570195 1.323859,-19.225196 0.239159,-0.277859 0.434832,-0.774659 0.434832,-1.104 0,-0.461187 0.08706,-0.511744 0.37882,-0.219984 0.470902,0.470902 0.792102,93.372065 0.424259,122.709175 l -0.239735,19.12 h -0.931715 c -0.512445,0 -0.988886,-0.18 -1.058765,-0.4 z M 37.399009,55.878649 c -2.843434,-0.170179 -4.388989,-0.3932 -4.56145,-0.658211 -0.143462,-0.220454 -0.543096,-1.299494 -0.888071,-2.397875 -1.653235,-5.263789 -2.382212,-13.688988 -1.456619,-16.834959 0.662409,-2.251443 2.295961,-4.041742 4.211554,-4.615668 1.627475,-0.487603 4.661165,-0.503691 6.354137,-0.0337 1.658864,0.460526 4.001056,2.754842 4.001056,3.919271 v 0.842105 h -6.879999 -6.88 v 3.210042 c 0,2.528512 0.09983,3.248355 0.470222,3.390486 0.258623,0.09924 3.894622,-0.03181 8.080001,-0.291197 8.788608,-0.544697 32.184185,-0.504659 36.569775,0.06259 1.529945,0.197888 8.040246,0.36096 14.879999,0.37272 6.688,0.01149 13.240006,0.159309 14.560006,0.328467 3.28625,0.421133 20.22877,0.280775 24.16,-0.200153 3.90733,-0.478004 11.11688,-1.11138 12.64,-1.110452 0.968,6.4e-4 2.336,0.166583 3.04,0.368877 0.71921,0.206666 3.80355,0.387523 7.04,0.412807 8.59916,0.06718 18.42582,0.780515 19.12196,1.388092 0.30907,0.269757 0.47708,0.575351 0.37335,0.679098 -0.10373,0.103744 -28.72182,0.260627 -63.59576,0.348627 l -63.407157,0.16 -0.668288,3.04 c -0.952941,4.334889 -1.65584,6.551731 -2.301977,7.260131 -0.525482,0.576115 -0.842519,0.599517 -4.862739,0.358902 z M 188.89961,48.358787 c -4.74403,-0.442406 -13.78404,-2.462486 -14.64684,-3.272985 -0.13577,-0.127536 -0.13577,-2.237603 0,-4.689034 l 0.24684,-4.457152 2.56,-0.856918 c 4.7997,-1.606617 13.71355,-2.465062 16.67167,-1.605558 1.58687,0.461078 3.21124,1.527741 4.04862,2.658579 1.07005,1.445053 1.29177,7.239878 0.28979,7.573872 -0.20354,0.06785 -0.37008,0.590259 -0.37008,1.160911 0,2.387002 -3.92509,3.942893 -8.8,3.488285 z"
     style="fill:#e693a9;stroke-width:0.31999999" />
  <path
     inkscape:connector-curvature="0"
     id="path5720"
     d="m 41.613856,178.17961 c 0,-0.616 0.06586,-0.868 0.146346,-0.56 0.08049,0.308 0.08049,0.812 0,1.12 -0.08049,0.308 -0.146346,0.056 -0.146346,-0.56 z m -0.149817,-4.32 c -0.08521,-1.056 -0.398695,-2.76006 -0.696647,-3.78679 -0.665305,-2.29265 -0.549792,-9.06691 0.213712,-12.53321 0.41488,-1.88355 0.490317,-5.23352 0.474052,-21.0521 -0.01427,-13.88755 0.07801,-18.90945 0.35256,-19.18399 0.282534,-0.28254 0.366496,6.54478 0.349408,28.41209 -0.01235,15.8312 -0.138519,29.072 -0.28033,29.424 -0.187085,0.46438 -0.300349,0.11313 -0.412755,-1.28 z m 0.08048,-70.95999 c -0.003,-2.72327 0.117046,-4.400006 0.3151,-4.400006 0.418176,0 0.418176,7.672916 0,8.320006 -0.208614,0.3228 -0.311804,-0.96093 -0.3151,-3.92 z m 0.09564,-15.280006 c -0.0016,-5.910124 0.09377,-9.219548 0.230854,-7.999999 0.29688,2.641174 0.295949,12.527545 -0.0016,15.679999 -0.135033,1.431241 -0.227622,-1.668787 -0.229379,-7.68 z M 32.983169,55.219616 c -0.382205,-0.485632 -1.497777,-4.225706 -1.980545,-6.64 -0.614074,-3.070944 -1.13632,-9.58559 -0.857487,-10.696547 0.425023,-1.693427 0.756622,-0.717849 0.894645,2.632077 0.07831,1.900541 0.2493,3.628541 0.379989,3.84 0.172735,0.279491 2.067372,0.38447 6.938732,0.38447 4.766608,0 6.701113,0.104352 6.701113,0.361469 0,0.938877 -1.723056,7.95359 -2.249651,9.158531 l -0.594361,1.36 h -4.45881 c -3.185817,0 -4.548691,-0.114202 -4.773625,-0.4 z m 150.636441,-7.65529 c -2.024,-0.353286 -4.904,-1.031939 -6.4,-1.508115 l -2.72,-0.865773 -0.0611,-4.121654 c -0.0336,-2.266908 0.0714,-4.369433 0.23352,-4.672275 0.70607,-1.319305 8.5261,-2.898691 14.70763,-2.970454 3.78037,-0.04389 4.10013,0.0029 5.82344,0.848995 2.3747,1.166141 3.17373,2.429712 3.38262,5.349238 0.0859,1.201098 0.0595,2.569447 -0.0588,3.040768 -0.18491,0.736749 -0.33318,0.827309 -1.05703,0.645632 -0.66727,-0.167469 -0.77312,-0.124144 -0.5102,0.208807 0.18246,0.231065 0.42581,0.813929 0.54075,1.295247 0.25415,1.064192 -0.50681,1.93521 -2.46908,2.826173 -1.78809,0.811885 -6.50285,0.780243 -11.41167,-0.07659 z m 0.16,-2.18471 c 0.10878,-0.176 -0.0902,-0.32 -0.44223,-0.32 -0.352,0 -0.72899,0.144 -0.83777,0.32 -0.10877,0.176 0.0902,0.32 0.44223,0.32 0.352,0 0.729,-0.144 0.83777,-0.32 z m 7.84,-2.277769 c 0,-0.352 -0.144,-0.551005 -0.32,-0.442231 -0.176,0.108775 -0.32,0.48577 -0.32,0.83777 0,0.352 0.144,0.551005 0.32,0.44223 0.176,-0.108774 0.32,-0.485769 0.32,-0.837769 z m 5.13467,-2.174823 c -0.19645,-0.367075 -0.59322,-0.667408 -0.88171,-0.667408 -0.4257,0 -0.38315,0.150477 0.22586,0.798739 0.85864,0.913988 1.18077,0.849482 0.65585,-0.131331 z m -20.17467,0.132592 c 0,-0.266665 -0.28444,-0.48 -0.64,-0.48 -0.70825,0 -0.86707,0.49504 -0.24,0.748071 0.69635,0.280982 0.88,0.225033 0.88,-0.268071 z M 61.072374,44.775133 c -3.412022,-0.167312 -3.86728,-0.249885 -3.155699,-0.57239 2.459686,-1.114788 10.603727,-1.380592 13.54294,-0.442016 0.798176,0.25488 4.291405,0.493948 9.28,0.635097 l 7.999999,0.226355 -9.279999,0.06064 c -5.104,0.03335 -10.432,0.111754 -11.84,0.174234 -1.408,0.06248 -4.354259,0.0256 -6.547241,-0.08192 z m 31.98724,-0.01248 -1.76,-0.205079 1.848147,-0.266867 c 1.022445,-0.147641 5.025539,-0.130867 8.959999,0.03754 l 7.11186,0.304409 -6.56,0.05785 c -3.608006,0.03181 -6.848006,0.107209 -7.200006,0.167539 -0.352,0.06033 -1.432,0.01741 -2.4,-0.09539 z m 36.400006,-0.234967 c 0.22,-0.08877 0.58,-0.08877 0.8,0 0.22,0.08877 0.04,0.161405 -0.4,0.161405 -0.44,0 -0.62,-0.07263 -0.4,-0.161405 z m 12.64,-0.01728 c 0.484,-0.07332 1.276,-0.07332 1.76,0 0.484,0.07332 0.088,0.133309 -0.88,0.133309 -0.968,0 -1.364,-0.05999 -0.88,-0.133309 z M 30.982052,35.337386 c -0.0045,-1.104067 1.277126,-2.700464 2.734205,-3.405824 3.980947,-1.927144 9.719647,-0.579384 11.032918,2.59113 0.345123,0.8332 0.338828,1.045081 -0.03849,1.296048 -0.255725,0.170086 -3.325578,0.261222 -7.08863,0.210444 -6.252733,-0.08437 -6.637706,-0.124483 -6.64,-0.691798 z"
     style="fill:#d47091;stroke-width:0.31999999" />
  <path
     inkscape:connector-curvature="0"
     id="path5718"
     d="m 33.074615,54.899616 c -0.0687,-0.22 -0.416841,-1.336 -0.773643,-2.48 -0.3568,-1.144 -0.800069,-2.934448 -0.985042,-3.978771 -0.598237,-3.377552 -1.255924,-3.061229 6.3648,-3.061229 3.685613,0 6.775974,0.121123 6.867465,0.269162 0.212509,0.343843 -1.193526,6.5967 -1.821087,8.098668 -0.582525,1.394176 -1.197085,1.55217 -6.037533,1.55217 -2.51208,0 -3.525046,-0.112087 -3.61496,-0.4 z M 189.53961,48.014672 c -4.28778,-0.284554 -12.045,-1.86615 -14.01684,-2.857856 -0.81716,-0.410979 -0.88823,-0.584595 -0.8,-1.954128 0.10711,-1.662435 -0.0175,-1.615773 2.7981,-1.047709 2.05617,0.414842 3.21874,1.09826 3.21874,1.892144 0,0.315015 0.41393,0.969325 0.91985,1.454019 l 0.91984,0.881264 2.44689,-0.821395 c 1.3458,-0.451766 2.98387,-0.838432 3.64016,-0.859254 2.36671,-0.07509 3.05446,-0.371699 3.33024,-1.436214 0.18891,-0.72921 0.63639,-1.19506 1.67947,-1.748416 1.39237,-0.73865 1.43571,-0.741901 2.08276,-0.156333 0.36343,0.328909 0.66079,0.918109 0.66079,1.309337 0,0.391229 0.20986,1.213581 0.46635,1.82745 0.43904,1.050758 0.42498,1.153782 -0.24,1.759094 -1.4869,1.353479 -3.96483,1.966477 -7.10635,1.757997 z m -6.16133,-3.189427 c -1.10427,-0.09942 -1.44862,-0.291373 -1.82364,-1.016573 -0.56987,-1.102006 -1.81305,-1.949056 -2.86054,-1.949056 -0.47642,0 -1.05876,-0.344176 -1.47267,-0.870371 -0.41786,-0.531222 -1.01919,-0.884333 -1.54322,-0.906208 -0.75629,-0.03155 -0.87078,-0.181606 -0.96086,-1.259126 -0.19561,-2.339744 -0.0179,-2.540429 3.05515,-3.449139 3.61824,-1.069939 7.09372,-1.561783 11.46417,-1.622384 4.24675,-0.05889 5.9367,0.385174 7.52755,1.97798 1.11311,1.114471 1.17883,1.301946 1.40304,4.001808 0.16003,1.927034 0.12288,2.944912 -0.11621,3.184 -0.39692,0.396928 -0.43115,0.256567 -0.49164,-2.01656 -0.0372,-1.397708 -0.0662,-1.437203 -0.98906,-1.344771 -2.14051,0.214397 -5.41644,2.124688 -5.92146,3.45297 -0.25886,0.680857 -0.49233,0.771942 -1.98136,0.772998 -1.12192,6.4e-4 -2.03924,0.215402 -2.73565,0.64 -0.57625,0.351341 -1.08025,0.613645 -1.12,0.582896 -0.0397,-0.03075 -0.68486,-0.111056 -1.4336,-0.178464 z M 36.499617,35.540189 c -5.898257,-0.109376 -6.004795,-0.169881 -4,-2.271699 1.3344,-1.398979 2.878944,-1.965304 5.36,-1.965304 3.098799,0 5.474642,1.086989 6.435004,2.944123 0.613946,1.187239 0.238522,1.557802 -1.475005,1.455907 -0.616,-0.03663 -3.46,-0.10999 -6.319999,-0.163027 z"
     style="fill:#ce276e;stroke-width:0.31999999" />
  <path
     inkscape:connector-curvature="0"
     id="path5716"
     d="m 35.553873,55.064192 c -1.638266,-0.115104 -1.659856,-0.129965 -1.308637,-0.900804 0.265043,-0.581705 0.261366,-0.993903 -0.01424,-1.598828 -0.515539,-1.131482 -0.463767,-2.266442 0.145824,-3.196794 0.486393,-0.742329 0.479689,-1.25238 -0.03821,-2.908124 -0.208612,-0.666941 -0.116544,-0.68448 4.803116,-0.91505 2.840691,-0.133133 5.13864,-0.11224 5.299056,0.04818 0.314077,0.314077 -0.948829,6.324179 -1.713433,8.154134 -0.63633,1.52295 -1.635312,1.706397 -7.173463,1.31729 z M 189.53961,48.015453 c -4.06577,-0.267331 -12.20765,-1.922823 -14.01684,-2.850051 -0.81621,-0.418314 -0.88813,-0.594781 -0.8,-1.962714 0.10597,-1.644688 -0.0218,-1.593696 2.6035,-1.039149 2.29895,0.485616 3.23806,1.027616 3.35978,1.939076 0.0585,0.438348 0.48299,1.126195 0.94321,1.528543 0.9321,0.81489 1.61689,0.768736 4.3222,-0.291305 0.84252,-0.330131 2.01252,-0.600237 2.6,-0.600237 2.20776,0 3.07291,-0.351933 3.52499,-1.43392 0.573,-1.371392 2.47959,-2.569657 3.34862,-2.104566 0.34716,0.185795 0.71799,0.661958 0.82407,1.058147 0.10608,0.396186 0.35908,1.273053 0.56222,1.948592 0.43582,1.449347 0.17956,2.011225 -1.31717,2.888003 -1.08119,0.633354 -3.83643,1.058854 -5.95458,0.919581 z m -7.49743,-3.755837 c -0.13377,-0.176 -0.33273,-0.571174 -0.44214,-0.878169 -0.25706,-0.721255 -2.09268,-1.839095 -3.02254,-1.840634 -0.39717,-6.4e-4 -1.03513,-0.361197 -1.41771,-0.801197 -0.38258,-0.44 -1.0379,-0.8 -1.45628,-0.8 -0.69688,0 -0.75244,-0.113917 -0.6623,-1.35798 0.0947,-1.306983 0.14047,-1.360157 1.2184,-1.415911 0.616,-0.03187 1.59724,-0.15847 2.18054,-0.281353 0.7546,-0.158973 1.37117,-0.05613 2.13743,0.356528 0.90594,0.487878 1.26384,0.522576 2.25445,0.218547 1.05064,-0.322448 1.19436,-0.297136 1.33348,0.234883 0.10621,0.406141 0.66767,0.71905 1.76072,0.981267 1.57918,0.378839 1.6168,0.370295 2.35758,-0.535501 0.41403,-0.506262 0.75797,-1.099443 0.7643,-1.318176 0.008,-0.26032 0.4813,-0.381596 1.3715,-0.351091 0.99205,0.034 1.64439,0.293107 2.41114,0.957696 1.23942,1.074291 1.99547,1.147783 2.78886,0.271091 0.73392,-0.810966 1.64105,-0.820188 2.06875,-0.02102 0.55706,1.04088 0.41039,1.179357 -1.98875,1.877629 -2.4268,0.706323 -4.87387,2.235872 -5.1948,3.247021 -0.21484,0.676909 -1.29908,1.038361 -2.31658,0.772278 -0.38065,-0.09954 -1.16831,0.0706 -1.75036,0.378093 -1.16296,0.614397 -4.01063,0.812643 -4.39569,0.306016 z m 15.73167,-2.72 c 0,-0.616 0.0659,-0.868 0.14635,-0.56 0.0805,0.308 0.0805,0.812 0,1.12 -0.0805,0.308 -0.14635,0.056 -0.14635,-0.56 z m -13.35424,-5.12 c 0.10878,-0.176 0.26128,-0.32 0.33889,-0.32 0.0776,0 0.14111,0.144 0.14111,0.32 0,0.176 -0.1525,0.32 -0.33888,0.32 -0.18639,0 -0.24989,-0.144 -0.14112,-0.32 z M 35.939617,35.157101 c -0.804215,-0.329158 -1.622186,-1.253126 -1.89032,-2.13528 -0.287383,-0.94548 1.285334,-1.56309 3.97032,-1.559157 2.801494,0.0041 4.90518,0.834771 5.928706,2.341026 0.435213,0.640471 0.791293,1.275066 0.791293,1.410208 0,0.328365 -7.984873,0.276829 -8.799999,-0.0568 z"
     style="fill:#a81e4e;stroke-width:0.31999999" />
</svg>
