<?xml version="1.0" encoding="UTF-8" standalone="no"?>
<!-- Created with Inkscape (http://www.inkscape.org/) -->

<svg
   xmlns:dc="http://purl.org/dc/elements/1.1/"
   xmlns:cc="http://creativecommons.org/ns#"
   xmlns:rdf="http://www.w3.org/1999/02/22-rdf-syntax-ns#"
   xmlns:svg="http://www.w3.org/2000/svg"
   xmlns="http://www.w3.org/2000/svg"
   xmlns:sodipodi="http://sodipodi.sourceforge.net/DTD/sodipodi-0.dtd"
   xmlns:inkscape="http://www.inkscape.org/namespaces/inkscape"
   version="1.1"
   id="svg5740"
   width="230.39999"
   height="230.39999"
   viewBox="0 0 230.39999 230.39999"
   sodipodi:docname="tantos_3.svg"
   inkscape:version="0.92.4 (5da689c313, 2019-01-14)">
  <metadata
     id="metadata5746">
    <rdf:RDF>
      <cc:Work
         rdf:about="">
        <dc:format>image/svg+xml</dc:format>
        <dc:type
           rdf:resource="http://purl.org/dc/dcmitype/StillImage" />
        <dc:title></dc:title>
      </cc:Work>
    </rdf:RDF>
  </metadata>
  <defs
     id="defs5744" />
  <sodipodi:namedview
     pagecolor="#ffffff"
     bordercolor="#666666"
     borderopacity="1"
     objecttolerance="10"
     gridtolerance="10"
     guidetolerance="10"
     inkscape:pageopacity="0"
     inkscape:pageshadow="2"
     inkscape:window-width="1920"
     inkscape:window-height="1000"
     id="namedview5742"
     showgrid="false"
     inkscape:zoom="2.4399038"
     inkscape:cx="186.58902"
     inkscape:cy="113.22365"
     inkscape:window-x="-11"
     inkscape:window-y="-11"
     inkscape:window-maximized="1"
     inkscape:current-layer="svg5740" />
  <path
     inkscape:connector-curvature="0"
     id="path6309"
     d="M 0.40985222,115.60985 V 0.40985237 H 115.60985 230.80984 V 115.60985 230.80984 H 115.60985 0.40985222 Z"
     style="fill:#f9f9f9;stroke-width:0.31999999" />
  <path
     inkscape:connector-curvature="0"
     id="path6307"
     d="m 32.704535,198.61875 c -0.173376,-0.20856 -0.324925,-29.37517 -0.37328,-71.84 l -0.0814,-71.4889 -0.863972,-2.780487 c -1.765257,-5.681062 -2.393473,-13.69358 -1.349309,-17.20966 0.950142,-3.199477 3.761975,-4.974237 7.81328,-4.93155 3.482861,0.0367 5.882563,1.361862 7.210054,3.981541 l 0.800727,1.580156 27.75461,0.06697 c 28.112915,0.06783 35.386415,0.04374 76.714595,-0.25407 l 23.04,-0.166032 2.12064,-0.762355 c 1.16636,-0.419296 3.24206,-0.993994 4.61267,-1.277101 1.37062,-0.283107 2.61233,-0.589091 2.75936,-0.679962 0.14703,-0.09087 0.26733,-0.593241 0.26733,-1.116378 0,-0.523137 0.19984,-1.027843 0.44409,-1.12157 0.24425,-0.09373 2.36215,-0.05321 4.70645,0.09004 4.12321,0.251952 4.26818,0.28518 4.44026,1.017744 0.13064,0.556144 0.61614,0.920769 1.82786,1.372782 2.95891,1.10377 4.58134,3.749216 4.58134,7.470067 0,1.213824 -0.72808,4.248592 -1.25591,5.234848 -0.46433,0.867622 -1.83681,1.792012 -3.38409,2.279254 -0.704,0.22169 -1.38844,0.501315 -1.52097,0.621389 -0.29448,0.266793 -0.34714,77.790734 -0.0713,104.956734 l 0.19955,19.65237 0.91589,2.74763 c 1.17985,3.53948 1.88523,7.57514 2.13083,12.19095 0.25306,4.7559 -0.28579,6.87268 -2.24937,8.83625 -1.65521,1.65522 -3.34939,2.15994 -6.62028,1.9723 -3.68038,-0.21113 -5.80351,-1.71346 -6.73317,-4.7644 -0.85463,-2.80469 -0.11122,-10.19854 1.65942,-16.50434 l 0.92939,-3.30986 v -63.18537 c 0,-59.853733 -0.0295,-63.20053 -0.56,-63.472763 -0.308,-0.158061 -1.16785,-0.380167 -1.91079,-0.493565 -0.74293,-0.113402 -2.48821,-0.565495 -3.8784,-1.004656 l -2.52762,-0.798474 -64.44159,0.08078 -64.441586,0.08078 -0.430707,1.92 c -0.23689,1.056 -0.81289,3.144 -1.28,4.64 l -0.849293,2.72 -0.16,71.999988 -0.16,72 h -4.74672 c -3.054067,0 -4.850803,-0.1252 -5.038595,-0.35109 z"
     style="fill:#f4ccd5;stroke-width:0.31999999" />
  <path
     inkscape:connector-curvature="0"
     id="path6305"
     d="m 38.16985,198.58368 c -2.27447,-0.18062 -2.447664,-0.31154 -1.602358,-1.21133 l 0.733514,-0.78079 -0.39474,-11.77086 c -0.719491,-21.45489 -0.735222,-23.88451 -0.19431,-30.01086 1.035446,-11.72738 1.25247,-17.04641 0.811248,-19.88272 -0.298912,-1.92149 -0.331821,-3.65796 -0.121594,-6.4159 0.360311,-4.72687 0.250016,-19.14929 -0.185536,-24.26137 C 36.842094,99.860472 36.771697,90.967074 36.981764,74.649849 37.138033,62.51152 36.905554,59.7044 35.559169,57.472285 l -0.613786,-1.017565 0.892234,-0.13449 c 0.547273,-0.08249 0.287526,-0.153024 -0.671824,-0.182435 l -1.564058,-0.04795 0.21737,1.84 c 0.119962,1.015449 0.03215,3.489103 -0.195942,5.519999 l -0.413312,3.68 -0.206116,-2.88 c -0.113363,-1.584 -0.221363,-4.055014 -0.24,-5.491142 -0.02518,-1.941917 -0.27047,-3.336173 -0.95698,-5.44 -1.890347,-5.793033 -2.766236,-13.941289 -1.833649,-17.058143 1.210966,-4.047239 3.338405,-5.591143 7.716744,-5.600117 1.952685,-0.004 2.915341,0.158333 4.057866,0.684293 1.672109,0.769754 3.547667,3.029815 3.395654,4.091786 -0.08992,0.62815 -0.352467,0.659491 -6.81352,0.813324 l -6.719999,0.16 -0.09514,1.129994 c -0.07316,0.868867 0.09072,1.304598 0.70914,1.885578 l 0.804282,0.755583 11.77086,-0.398771 c 21.180844,-0.717558 23.241282,-0.730076 30.01086,-0.182349 13.195855,1.067677 17.102373,1.222685 19.923884,0.790554 2.133376,-0.326739 3.801676,-0.326499 8.639993,0.0013 6.15543,0.416966 6.23157,0.41529 29.83611,-0.657261 6.17536,-0.280595 8.9383,-0.280841 11.36,-9.6e-4 4.60964,0.532653 23.07232,0.232429 25.40759,-0.413155 0.95018,-0.262675 1.87898,-0.628976 2.064,-0.814003 0.18503,-0.185104 0.59561,-0.33649 0.91241,-0.33649 0.39395,0 0.576,-0.241651 0.576,-0.76455 0,-0.420499 0.252,-1.054243 0.56,-1.408314 0.64849,-0.745491 3.74044,-1.807407 6.95749,-2.389516 2.09269,-0.378663 2.248,-0.464535 2.4,-1.327019 0.25523,-1.44826 0.95715,-1.69004 3.01929,-1.040009 1.33814,0.421812 1.81506,0.73526 1.92485,1.265079 0.1392,0.67168 0.71657,17.38095 1.03608,29.984328 0.0992,3.913296 -0.0254,8.089408 -0.36774,12.32 -1.06768,13.195855 -1.22269,17.102373 -0.79056,19.923884 0.32674,2.133376 0.3265,3.801676 -0.001,8.640002 -0.41696,6.15543 -0.41529,6.23157 0.65726,29.8361 0.2806,6.17536 0.28085,8.9383 9.6e-4,11.36 -0.53265,4.60965 -0.23242,23.07232 0.41316,25.40759 0.26267,0.95018 0.62897,1.87899 0.814,2.064 0.18511,0.18504 0.33649,0.59561 0.33649,0.91241 0,0.38606 0.24033,0.576 0.7288,0.576 1.32229,0 2.05737,0.85633 2.78146,3.24022 1.69238,5.57179 2.41568,13.80441 1.492,16.98179 -1.04688,3.60113 -3.1595,5.03935 -7.41943,5.05096 -2.13516,0.006 -2.8602,-0.13401 -4.22739,-0.81531 -1.39023,-0.69278 -1.78812,-1.10419 -2.52544,-2.61121 -0.77297,-1.5799 -0.87361,-2.14737 -0.8615,-4.85766 0.017,-3.79421 0.77013,-8.53109 2.03157,-12.77727 l 0.95993,-3.23125 V 111.14608 47.782042 l -0.88,-0.19321 c -2.39285,-0.525372 -5.82826,-1.438848 -7.08023,-1.88264 -1.24737,-0.44216 -8.41308,-0.496342 -65.64081,-0.496342 -51.005436,0 -64.307679,0.08241 -64.566258,0.4 -0.179123,0.22 -0.573222,1.624 -0.875779,3.12 -0.302554,1.496 -0.905238,3.705597 -1.339296,4.910214 l -0.789194,2.190214 0.06341,57.489782 c 0.03488,31.61938 0.04649,63.78978 0.02579,71.48978 l -0.03762,14 -1.36,-0.0559 c -0.748,-0.0307 -2.008,-0.10736 -2.8,-0.17025 z m -5.119999,-0.59272 c 0,-0.27439 0.146348,-0.40844 0.325219,-0.29789 0.17887,0.11054 0.242374,0.33504 0.141113,0.49888 -0.274313,0.44386 -0.466332,0.36109 -0.466332,-0.20099 z M 191.85054,169.84984 c 0.004,-0.704 0.0691,-0.95432 0.14562,-0.55627 0.0765,0.39806 0.0736,0.97406 -0.006,1.28 -0.0801,0.30595 -0.14272,-0.0197 -0.13917,-0.72373 z m 0.5593,-129.0879 c 0,-8.372664 -0.0608,-8.188873 2.39716,-7.250185 1.68902,0.645046 3.20225,2.268038 3.6636,3.92935 0.47584,1.713472 0.41899,4.773318 -0.11074,5.960384 -0.24748,0.554598 -0.53816,1.404089 -0.64594,1.887753 -0.24889,1.116896 -2.25541,2.475965 -4.0012,2.710122 l -1.30288,0.174755 z m -23.11627,-4.098413 c 0.39806,-0.07654 0.97406,-0.07364 1.28,0.0065 0.30595,0.08009 -0.0197,0.14272 -0.72373,0.139168 -0.704,-0.0036 -0.95432,-0.06909 -0.55627,-0.145625 z"
     style="fill:#f2b8c6;stroke-width:0.31999999" />
  <path
     inkscape:connector-curvature="0"
     id="path6303"
     d="m 39.884788,198.49986 c -0.595088,-0.24631 -0.706445,-0.61231 -0.847872,-2.78678 -0.08955,-1.37678 -0.320605,-4.80724 -0.513459,-7.62324 -0.51985,-7.59064 -0.531267,-23.9208 -0.02896,-41.44 0.499187,-17.41082 0.500934,-17.58153 0.363824,-35.51999 -0.07154,-9.35943 -0.218439,-13.49342 -0.528755,-14.880002 -0.679213,-3.034915 -0.920756,-8.341888 -0.517578,-11.371904 0.198186,-1.489452 0.422992,-7.844009 0.499568,-14.121237 0.07658,-6.277229 0.238,-11.939626 0.358717,-12.583107 0.160957,-0.857974 0.440611,-1.254038 1.048694,-1.485232 1.47248,-0.559837 0.127277,-0.908381 -3.526112,-0.913619 l -3.41702,-0.0049 -0.623669,-1.68 C 30.699574,50.17694 29.699784,43.34695 29.904891,38.737763 c 0.11194,-2.515504 0.272051,-3.224282 1.050372,-4.649747 0.740847,-1.356838 1.232924,-1.831538 2.546444,-2.456524 2.179919,-1.037228 3.942364,-1.269861 6.173695,-0.814895 2.461523,0.501903 3.761245,1.343739 4.793146,3.104545 0.833872,1.422893 0.8392,1.466096 0.237168,1.923219 -0.512618,0.389229 -1.635149,0.434266 -6.695866,0.268634 -3.502806,-0.11464 -6.266862,-0.0752 -6.520836,0.09306 -0.349438,0.231494 -0.392563,0.871571 -0.208004,3.087187 l 0.232834,2.795136 2.448003,-0.17543 c 1.346403,-0.09649 4.536003,-0.327447 7.088003,-0.513245 6.913485,-0.503338 24.496156,-0.529549 41.279998,-0.06154 18.527472,0.516627 20.233112,0.535795 36.159992,0.406387 9.28662,-0.07545 13.50421,-0.226311 14.88,-0.532234 2.97465,-0.661443 8.62299,-0.911443 11.52,-0.509881 1.408,0.195168 7.69092,0.415446 13.96204,0.48951 6.27112,0.07406 11.93352,0.234371 12.58311,0.356234 0.86912,0.163049 1.26434,0.440579 1.49633,1.050777 0.54165,1.424647 0.90782,0.169239 0.91852,-3.149104 0.005,-1.672 0.12349,-3.219017 0.26244,-3.437817 0.35243,-0.554957 4.29079,-1.848758 7.03838,-2.312202 2.18897,-0.369216 2.30782,-0.434249 2.55594,-1.398601 0.1946,-0.756326 0.46422,-1.035634 1.06913,-1.107558 0.44489,-0.0529 0.97779,0.107334 1.18423,0.35607 0.75415,0.908697 1.32576,7.683942 1.69771,20.122857 0.28824,9.639353 0.29087,13.690841 0.0109,16.799999 -0.32155,3.571161 -0.82995,23.933356 -0.84136,33.69725 -0.0194,16.6107 0.23628,29.47366 0.62015,31.19999 0.66144,2.97465 0.91144,8.62299 0.50988,11.52 -0.19517,1.408 -0.41545,7.69092 -0.48951,13.96204 -0.0741,6.27112 -0.23437,11.93352 -0.35623,12.58311 -0.16305,0.86912 -0.44058,1.26434 -1.05078,1.49633 -1.42465,0.54165 -0.16924,0.90782 3.1491,0.91852 1.672,0.005 3.21902,0.12349 3.43782,0.26244 1.30987,0.83184 3.05801,9.5453 3.09743,15.43887 0.0235,3.51431 -0.0243,3.79721 -0.94522,5.59926 -1.23516,2.41685 -2.78904,3.36185 -5.89307,3.58394 -4.12135,0.29488 -6.79959,-1.0876 -7.84453,-4.04928 -1.06094,-3.00704 -0.27073,-11.28865 1.66745,-17.47523 l 0.90227,-2.88 -0.17107,-63.3283 -0.17107,-63.328296 -3.52,-0.88105 c -1.936,-0.484579 -4.096,-1.074841 -4.8,-1.311696 -1.06206,-0.357321 -12.23051,-0.403404 -65.59381,-0.270646 l -64.313799,0.16 -0.660531,3.05752 c -0.363293,1.681635 -0.979015,3.930985 -1.368269,4.998556 l -0.707738,1.941037 -0.07792,71.641435 -0.07792,71.64144 -0.8,0.0668 c -0.44,0.0367 -1.108278,-0.0608 -1.485062,-0.21677 z M 192.55634,47.010429 c -0.11138,-0.593683 -0.12327,-2.573683 -0.0264,-4.4 0.0968,-1.82632 0.18144,-4.652579 0.188,-6.280579 l 0.0119,-2.959999 h 0.85189 c 1.40513,0 3.55177,1.477113 4.32173,2.973804 0.81556,1.585331 1.04857,6.289827 0.34638,6.993405 -0.22,0.220435 -0.4,0.712569 -0.4,1.093635 0,0.970243 -1.11772,2.28336 -2.5775,3.028083 -1.84598,0.941747 -2.47468,0.837962 -2.716,-0.448349 z"
     style="fill:#eca6b7;stroke-width:0.31999999" />
  <path
     inkscape:connector-curvature="0"
     id="path6301"
     d="m 185.3214,198.36573 c -0.81864,-0.22051 -1.87611,-0.65494 -2.34993,-0.9654 -2.25851,-1.47983 -2.91709,-6.23055 -1.80084,-12.99049 0.61259,-3.70983 2.30056,-9.73836 2.8954,-10.34087 0.14166,-0.14348 2.18477,-0.14348 4.54026,0 l 4.2827,0.26087 0.6914,1.92 c 0.8417,2.33737 1.57875,6.23676 2.02282,10.70185 0.67625,6.79951 -1.02865,10.63224 -5.11978,11.50963 -2.03601,0.43665 -3.27095,0.41378 -5.16203,-0.0956 z M 39.942714,198.08984 c -0.06988,-0.22 -0.354467,-4 -0.632422,-8.4 -0.564163,-8.93067 -0.502339,-31.61981 0.09837,-36.10374 0.184487,-1.37706 0.338298,-6.63306 0.341799,-11.68 0.0098,-14.14148 0.03184,-14.97656 0.510905,-19.38284 0.246765,-2.26962 0.397623,-4.21362 0.335235,-4.32 -0.06238,-0.10638 -0.20614,-4.15341 -0.319452,-8.99341 -0.113312,-4.84 -0.276167,-9.232002 -0.361898,-9.760002 C 39.515149,96.98572 38.81105,88.967487 38.81048,86.868811 c -3.2e-4,-1.287571 0.173555,-2.655571 0.386451,-3.039999 0.260551,-0.470477 0.395958,-2.63417 0.414224,-6.618963 0.03699,-8.06937 0.760086,-18.570195 1.323859,-19.225196 0.239159,-0.277859 0.434832,-0.774659 0.434832,-1.104 0,-0.462557 0.08654,-0.512259 0.380365,-0.218439 0.469776,0.469776 0.794394,95.467286 0.422586,123.667626 l -0.239431,18.16 h -0.931805 c -0.512489,0 -0.988972,-0.18 -1.058851,-0.4 z M 184.01506,172.24095 c -0.0411,-0.0831 -0.14913,-28.15911 -0.24,-62.3911 l -0.16522,-62.24 -1.92,-0.422032 c -2.53593,-0.557418 -7.29679,-1.974931 -7.60061,-2.26303 -0.13234,-0.125492 -0.1452,-2.217706 -0.0286,-4.649367 l 0.21204,-4.421199 1.13594,-0.474628 c 1.17984,-0.492966 5.07818,-1.494617 7.15863,-1.839359 0.92281,-0.152912 1.24267,-0.378676 1.39469,-0.9844 0.25166,-1.002664 1.30818,-1.042736 1.7397,-0.06598 1.04477,2.364844 1.56071,36.76748 0.65628,43.759998 -0.19789,1.529945 -0.36096,8.040246 -0.37272,14.879999 -0.0115,6.688 -0.15931,13.239998 -0.32847,14.559998 -0.42113,3.28624 -0.28078,20.22877 0.20015,24.15999 0.478,3.90734 1.11138,11.11689 1.11045,12.64 -6.4e-4,0.968 -0.16658,2.336 -0.36887,3.04 -0.20667,0.71921 -0.38753,3.80356 -0.41281,7.04 -0.0248,3.168 -0.23502,8.64 -0.46727,12.16 -0.36106,5.4724 -0.50968,6.49147 -1.02541,7.03111 -0.33172,0.34711 -0.63679,0.56311 -0.67792,0.48 z M 37.229242,55.724374 C 34.401476,55.544947 32.839303,55.314221 32.667793,55.050672 32.524331,54.830218 32.124697,53.751178 31.779722,52.652797 30.13117,47.40392 29.397629,38.963265 30.318148,35.834881 c 0.67282,-2.286579 2.351607,-4.165025 4.171703,-4.667847 1.64351,-0.454038 4.76079,-0.453336 6.398943,0.0014 1.658864,0.460526 4.001056,2.754842 4.001056,3.919271 v 0.842105 h -6.88 -6.879999 v 3.210042 c 0,2.528512 0.09983,3.248355 0.470222,3.390486 0.258622,0.09924 3.894622,-0.03181 8.080001,-0.291197 8.788608,-0.544697 32.184184,-0.504659 36.569775,0.06259 1.529945,0.197888 8.040246,0.36096 14.879999,0.37272 6.688,0.01149 13.240002,0.159309 14.560002,0.328467 3.28624,0.421133 20.22877,0.280775 24.15999,-0.200153 3.90734,-0.478004 11.11689,-1.11138 12.64,-1.110452 0.968,6.4e-4 2.336,0.166583 3.04,0.368877 0.71921,0.206666 3.80356,0.387523 7.04,0.412807 8.59916,0.06718 18.42582,0.780515 19.12196,1.388092 0.30908,0.269757 0.47709,0.575351 0.37335,0.679098 -0.10373,0.103744 -28.71922,0.260627 -63.58996,0.348627 l -63.40135,0.16 -0.277097,1.28 c -1.230106,5.68223 -2.540982,9.834947 -3.066298,9.713702 -0.110326,-0.02547 -2.135868,-0.169094 -4.501203,-0.319178 z m 155.692028,-7.90367 c -0.0915,-0.148028 -0.16823,-3.393987 -0.17055,-7.213238 -0.005,-7.796207 -0.0149,-7.765033 2.2129,-6.760422 1.43669,0.647856 2.71134,1.887501 3.15856,3.071821 0.62258,1.648688 0.55028,5.822656 -0.11234,6.48527 -0.264,0.264 -0.48,0.897184 -0.48,1.407078 0,1.086541 -0.9333,2.07273 -2.63409,2.783363 -1.34919,0.563732 -1.73829,0.608292 -1.97448,0.226128 z"
     style="fill:#e593a9;stroke-width:0.31999999" />
  <path
     inkscape:connector-curvature="0"
     id="path6299"
     d="m 184.22469,197.90191 c -2.58352,-1.21077 -3.43336,-3.22345 -3.39744,-8.04618 0.0317,-4.25673 1.03174,-9.45446 2.69474,-14.00589 l 0.61384,-1.68 h 3.91584 c 2.6326,0 4.09204,0.13108 4.4535,0.4 1.34499,1.00063 2.87843,8.85756 2.91975,14.96 0.0231,3.40875 -0.0411,3.8144 -0.87051,5.50344 -1.28134,2.60929 -2.43416,3.24402 -6.13267,3.37661 -2.33147,0.0836 -3.14483,-0.0149 -4.19705,-0.50798 z M 41.44409,178.00984 c 0,-0.616 0.06586,-0.868 0.146346,-0.56 0.08049,0.308 0.08049,0.812 0,1.12 -0.08049,0.308 -0.146346,0.056 -0.146346,-0.56 z m -0.135129,-4.32 c -0.09328,-1.056 -0.413383,-2.76006 -0.711335,-3.78679 -0.679171,-2.34043 -0.544432,-9.10396 0.252691,-12.68463 0.45601,-2.04838 0.513687,-3.97631 0.402084,-13.44 -0.152077,-12.8956 0.101846,-26.61599 0.488163,-26.37723 0.324352,0.20046 0.291072,55.8777 -0.03422,57.24865 -0.193805,0.81681 -0.253081,0.67361 -0.397385,-0.96 z m 142.876769,-30.88 c 0,-0.968 0.06,-1.364 0.13331,-0.88 0.0733,0.484 0.0733,1.276 0,1.76 -0.0733,0.484 -0.13331,0.088 -0.13331,-0.88 z m -0.0454,-13.12 c 0,-0.44 0.0726,-0.62 0.1614,-0.4 0.0888,0.22 0.0888,0.58 0,0.8 -0.0888,0.22 -0.1614,0.04 -0.1614,-0.4 z m 0.0458,-29.59999 c -0.009,-6.820652 0.0639,-8.564552 0.30671,-7.303788 0.21018,1.091216 0.21437,4.147808 0.0123,8.959998 l -0.3067,7.30379 z m -142.784382,2.64 c -0.01987,-2.741266 0.08874,-4.400002 0.288102,-4.400002 0.382301,0 0.382301,6.806262 0,8.000002 -0.157264,0.49105 -0.268521,-0.89917 -0.288102,-3.6 z m 0.0643,-15.280002 0.0022,-10.079999 0.29344,5.994367 c 0.178896,3.654506 0.177964,7.589171 -0.0022,10.08 -0.260928,3.603597 -0.295549,2.896365 -0.29344,-5.994368 z M 184.1599,72.729849 c -0.0411,-13.742755 0.0121,-15.734079 0.40155,-15.039999 1.15879,2.064995 1.4753,10.561554 0.50662,13.599999 -0.25397,0.796608 -0.49356,4.301193 -0.63444,9.28 -0.20298,7.173817 -0.23124,6.364159 -0.27373,-7.84 z M 32.83346,55.04985 c -0.389763,-0.528938 -1.56658,-4.427546 -2.004317,-6.64 C 30.21657,45.313728 29.6981,38.818039 29.97537,37.713303 c 0.425023,-1.693427 0.756623,-0.717849 0.894645,2.632077 0.07831,1.900541 0.249301,3.628541 0.37999,3.84 0.172786,0.279571 2.073602,0.38447 6.966857,0.38447 h 6.729244 l -0.224394,1.36 c -0.352796,2.138214 -1.62495,6.999469 -2.177286,8.32 l -0.50192,1.2 h -4.457145 c -3.195181,0 -4.540602,-0.113255 -4.751901,-0.4 z m 160.01337,-7.756707 c -0.10061,-0.262189 -0.10235,-1.738189 -0.004,-3.28 0.0985,-1.541811 0.17617,-4.495293 0.17262,-6.563293 -0.006,-3.650783 0.0138,-3.759999 0.69032,-3.759999 1.1063,0 3.15487,1.317455 3.88463,2.498236 0.71817,1.162016 1.15524,4.758413 0.76652,6.307203 -0.18491,0.736749 -0.33318,0.827309 -1.05704,0.645632 -0.66664,-0.167315 -0.77331,-0.12384 -0.51229,0.208807 0.45865,0.584496 0.73274,1.832179 0.52272,2.379468 -0.241,0.628039 -2.71836,2.040653 -3.57878,2.040653 -0.38606,0 -0.78424,-0.214518 -0.88485,-0.476707 z m 3.73768,-6.535885 c -0.19645,-0.367075 -0.59322,-0.667408 -0.88171,-0.667408 -0.4257,0 -0.38315,0.150477 0.22586,0.798739 0.85864,0.913988 1.18077,0.849482 0.65585,-0.131331 z m -16.17467,6.046928 c -1.408,-0.32544 -3.352,-0.866934 -4.32,-1.203318 l -1.76,-0.611613 -0.0638,-4.17064 c -0.0434,-2.834528 0.0591,-4.335805 0.32,-4.686198 0.47458,-0.637434 5.00849,-2.01664 7.58915,-2.308611 l 1.91469,-0.216621 v 5.641331 5.641334 h -0.78111 c -0.42961,0 -0.884,0.166477 -1.00976,0.369952 -0.16271,0.263261 0.0526,0.313699 0.74666,0.17489 0.8321,-0.16642 0.99542,-0.08976 1.11239,0.522128 0.31979,1.672832 0.0687,1.72959 -3.74818,0.847366 z m -4,-5.914336 c 0,-0.266665 -0.28444,-0.48 -0.64,-0.48 -0.70825,0 -0.86707,0.49504 -0.24,0.748071 0.69635,0.280982 0.88,0.225033 0.88,-0.268071 z M 60.902608,44.605367 c -3.412022,-0.167312 -3.86728,-0.249885 -3.155699,-0.57239 2.459686,-1.114788 10.603727,-1.380592 13.54294,-0.442016 0.798176,0.25488 4.291405,0.493948 9.28,0.635097 l 7.999999,0.226355 -9.279999,0.06064 c -5.104,0.03335 -10.432,0.111754 -11.84,0.174234 -1.408,0.06248 -4.354259,0.0256 -6.547241,-0.08192 z m 31.883454,-0.438602 c 1.091216,-0.210179 4.147808,-0.214377 8.959998,-0.01229 l 7.30379,0.306704 -8.96,0.01229 c -6.820652,0.0094 -8.564552,-0.06386 -7.303788,-0.306704 z m 36.503778,0.191155 c 0.22,-0.08877 0.58,-0.08877 0.8,0 0.22,0.08877 0.04,0.161405 -0.4,0.161405 -0.44,0 -0.62,-0.07263 -0.4,-0.161405 z m 12.64,-0.01728 c 0.484,-0.07332 1.276,-0.07332 1.76,0 0.484,0.07332 0.088,0.133309 -0.88,0.133309 -0.968,0 -1.364,-0.05999 -0.88,-0.133309 z M 30.812286,35.16762 c -0.0045,-1.104067 1.277126,-2.700464 2.734205,-3.405824 1.969679,-0.953506 4.709699,-1.158313 6.915935,-0.516942 2.117027,0.615437 3.124391,1.355163 3.960992,2.908635 0.546464,1.014723 0.564778,1.20048 0.145722,1.478038 -0.289767,0.191927 -3.103939,0.282042 -7.116854,0.227891 -6.252733,-0.08437 -6.637706,-0.124483 -6.64,-0.691798 z"
     style="fill:#d57091;stroke-width:0.31999999" />
  <path
     inkscape:connector-curvature="0"
     id="path6297"
     d="m 184.62866,197.70622 c -2.68154,-0.95635 -3.15409,-2.13194 -3.20173,-7.96499 -0.0401,-4.91219 0.41399,-8.40069 1.28609,-9.88005 0.34088,-0.57823 0.82612,-1.75292 1.0783,-2.61042 0.70125,-2.38443 1.39443,-2.76186 5.06168,-2.75602 1.69226,0.003 3.23546,0.1107 3.42933,0.24 0.56136,0.37441 1.69565,4.16688 2.22926,7.45346 0.6387,3.93389 0.74352,9.96375 0.20419,11.74584 -0.54762,1.80945 -2.07856,3.50248 -3.53226,3.90624 -1.64068,0.4557 -5.09959,0.38496 -6.55486,-0.13406 z M 32.904849,54.72985 c -0.0687,-0.22 -0.416842,-1.336 -0.773643,-2.48 -0.3568,-1.144 -0.800069,-2.934448 -0.985042,-3.978771 -0.598237,-3.377552 -1.255924,-3.061229 6.3648,-3.061229 3.685613,0 6.775974,0.121123 6.867465,0.269162 0.212509,0.343843 -1.193526,6.5967 -1.821088,8.098668 -0.582524,1.394176 -1.197084,1.55217 -6.037532,1.55217 -2.51208,0 -3.525046,-0.112087 -3.61496,-0.4 z M 193.26318,47.236516 c -0.26903,-0.269021 -0.27106,-3.074685 -0.003,-4.694675 0.26188,-1.585024 1.37336,-2.215901 2.34877,-1.333168 0.35271,0.319203 0.6413,0.900464 0.6413,1.291692 0,0.391229 0.20985,1.213581 0.46634,1.82745 0.43904,1.050758 0.42498,1.153782 -0.24,1.759094 -1.28144,1.166461 -2.6916,1.671015 -3.21301,1.149607 z m -11.09334,-0.329911 c -1.69719,-0.288713 -5.96206,-1.489661 -6.81684,-1.919555 -0.81716,-0.410979 -0.88824,-0.584595 -0.8,-1.954128 0.10711,-1.662435 -0.0175,-1.615773 2.7981,-1.047709 2.02465,0.40848 3.21874,1.096468 3.21874,1.854503 0,0.726851 1.58246,2.330134 2.29987,2.330134 0.31907,0 0.58013,0.216 0.58013,0.48 0,0.264 -0.108,0.46039 -0.24,0.436422 -0.132,-0.02397 -0.6,-0.104819 -1.04,-0.179667 z m -0.76517,-3.229398 c -0.58784,-1.136758 -1.82064,-1.987357 -2.88034,-1.987357 -0.47642,0 -1.05876,-0.344176 -1.47267,-0.870371 -0.41786,-0.531222 -1.01919,-0.884333 -1.54323,-0.906208 -0.75628,-0.03155 -0.87077,-0.181606 -0.96086,-1.259126 -0.1954,-2.337386 -0.0167,-2.539747 3.05516,-3.459882 1.54391,-0.462457 3.45511,-0.882134 4.24711,-0.93262 l 1.44,-0.09179 v 5.119999 c 0,5.025984 -0.0129,5.121834 -0.70152,5.219837 -0.50566,0.07196 -0.83614,-0.160471 -1.18365,-0.83248 z M 197.4789,42.63385 c -0.028,-0.2552 -0.0682,-1.112 -0.0893,-1.904 -0.0371,-1.394918 -0.0675,-1.436531 -0.96919,-1.329219 -0.51197,0.06093 -1.27318,0.240928 -1.69157,0.4 -0.41839,0.159069 -0.89533,0.289219 -1.05987,0.289219 -0.16454,0 -0.29917,-1.300518 -0.29917,-2.890041 0,-3.232656 0.23529,-3.581158 1.853,-2.744605 1.91322,0.989363 2.52574,2.127814 2.7787,5.164534 0.15668,1.880887 0.11792,2.88849 -0.12026,3.126672 -0.25525,0.255255 -0.36538,0.224445 -0.40238,-0.11256 z M 35.68985,35.37058 c -5.194758,-0.111987 -5.33179,-0.20464 -3.359999,-2.271856 1.3344,-1.398979 2.878943,-1.965304 5.359999,-1.965304 3.0988,0 5.474643,1.086989 6.435005,2.944123 0.655846,1.268269 0.253833,1.545194 -2.115005,1.456925 -0.968,-0.03607 -3.812,-0.109821 -6.32,-0.163888 z"
     style="fill:#ce276e;stroke-width:0.31999999" />
  <path
     inkscape:connector-curvature="0"
     id="path6295"
     d="m 185.93977,197.8512 c -3.73892,-0.47958 -4.43058,-1.676 -4.51333,-7.80708 -0.0635,-4.70765 0.45674,-8.76651 1.31329,-10.24555 0.31492,-0.5438 0.77312,-1.63673 1.01821,-2.42873 0.82436,-2.66388 1.53542,-3.00924 5.41624,-2.63065 l 2.36434,0.23065 0.088,1.28 c 0.0484,0.704 0.18639,1.73176 0.30669,2.28391 0.15381,0.70601 0.0552,1.25351 -0.3324,1.84503 -0.39844,0.60809 -0.49613,1.18501 -0.35262,2.08246 0.14709,0.91981 0.0797,1.28693 -0.25998,1.41729 -0.44283,0.16993 -1.13289,2.06898 -1.13654,3.12779 -9.6e-4,0.28407 0.56005,0.90584 1.24675,1.38172 1.12204,0.77758 1.24201,0.99227 1.18409,2.11911 -0.0446,0.86718 -0.33093,1.53203 -0.92854,2.1558 -1.03818,1.08362 -1.09155,1.93141 -0.19346,3.07314 0.86442,1.09895 0.61985,1.67195 -0.89294,2.09204 -1.32916,0.3691 -1.61794,0.37064 -4.32776,0.0231 z M 35.570951,54.896317 l -1.478902,-0.118176 0.0019,-1.344147 c 9.6e-4,-0.73928 -0.107805,-1.748215 -0.241834,-2.242077 -0.171612,-0.632358 -0.07174,-1.21721 0.337661,-1.977434 0.483363,-0.897548 0.522263,-1.272028 0.230784,-2.221753 -0.192813,-0.628237 -0.256089,-1.19815 -0.140617,-1.266474 0.508675,-0.300969 9.903119,-0.563427 10.077337,-0.281536 0.228576,0.36984 -1.139719,6.552931 -1.799667,8.132416 -0.629981,1.507754 -1.818445,1.732157 -6.986618,1.319181 z M 193.43825,44.36576 c 0.0838,-2.822335 0.15005,-3.105647 0.78034,-3.338127 0.95877,-0.353636 1.67933,0.265836 2.08298,1.790787 0.6418,2.424633 0.52967,3.087081 -0.65905,3.893657 -0.59803,0.405776 -1.35924,0.737773 -1.69159,0.737773 -0.55689,0 -0.59708,-0.241795 -0.51268,-3.08409 z m -11.10841,2.528448 c -2.25446,-0.43343 -6.21805,-1.509673 -6.96,-1.889862 -0.72358,-0.370781 -0.87913,-0.662765 -0.8751,-1.642713 0.007,-1.650205 0.34424,-2.097258 1.30411,-1.727648 0.42405,0.163286 1.48536,0.466224 2.35847,0.673193 1.91279,0.453424 2.41252,0.825997 2.41252,1.798627 0,0.829648 1.36544,2.064045 2.28316,2.064045 0.32826,0 0.59684,0.135501 0.59684,0.301114 0,0.424348 -0.37572,0.566336 -1.12,0.423244 z m -0.38966,-2.738332 c -0.13759,-0.212314 -0.39764,-0.674026 -0.57789,-1.026026 -0.35451,-0.692272 -2.03265,-1.631277 -3.41112,-1.908685 -0.47697,-0.09599 -0.94886,-0.456972 -1.06156,-0.812057 -0.14322,-0.451248 -0.48431,-0.639258 -1.15973,-0.639258 -0.92425,0 -0.95348,-0.04514 -0.85844,-1.3251 0.0965,-1.299316 0.12331,-1.326797 1.3784,-1.412304 0.704,-0.04796 1.73835,-0.186596 2.29855,-0.308071 0.70937,-0.153824 1.24094,-0.0651 1.7512,0.292304 0.40296,0.282243 1.18937,0.513171 1.74757,0.513171 h 1.01492 l 0.12693,2.64 c 0.0698,1.452 0.0701,2.954327 6.4e-4,3.338503 -0.14788,0.818227 -0.88976,1.202678 -1.24952,0.647523 z m 15.6639,-2.786026 c 0,-0.616 0.0659,-0.868 0.14635,-0.56 0.0805,0.308 0.0805,0.812 0,1.12 -0.0805,0.308 -0.14635,0.056 -0.14635,-0.56 z m -3.91424,-2.4 c 0,-0.567385 0.17354,-0.8 0.59685,-0.8 0.32826,0 0.96298,-0.288 1.41047,-0.64 0.44749,-0.352 0.97448,-0.64 1.17108,-0.64 0.32093,0 1.12763,1.569492 0.91056,1.771568 -0.13516,0.125818 -3.52779,1.108432 -3.82704,1.108432 -0.14406,0 -0.26192,-0.36 -0.26192,-0.8 z M 35.92985,35.060721 c -0.617977,-0.229942 -1.407619,-1.053482 -1.909753,-1.991725 -0.469053,-0.876435 -0.224998,-1.107067 1.749753,-1.653506 2.801312,-0.775159 6.913395,0.417312 8.108778,2.351481 0.380172,0.615132 0.691222,1.209423 0.691222,1.320649 0,0.247507 -7.969209,0.222694 -8.64,-0.02691 z"
     style="fill:#a51e4d;stroke-width:0.31999999" />
</svg>
